<?xml version="1.0" encoding="UTF-8"?>
<!DOCTYPE svg PUBLIC "-//W3C//DTD SVG 1.1//EN" "http://www.w3.org/Graphics/SVG/1.1/DTD/svg11.dtd">
<svg xmlns="http://www.w3.org/2000/svg" version="1.1" width="370px" height="401px" style="shape-rendering:geometricPrecision; text-rendering:geometricPrecision; image-rendering:optimizeQuality; fill-rule:evenodd; clip-rule:evenodd" xmlns:xlink="http://www.w3.org/1999/xlink">
<g><path style="opacity:0.051" fill="#000000" d="M 324.5,28.5 C 328.75,29.7987 332.75,31.4653 336.5,33.5C 333.366,33.4463 330.199,33.4463 327,33.5C 324.71,32.1719 323.876,30.5053 324.5,28.5 Z"/></g>
<g><path style="opacity:0.005" fill="#000000" d="M 134.5,33.5 C 135.251,32.4265 136.251,32.2599 137.5,33C 136.648,34.7284 135.648,34.895 134.5,33.5 Z"/></g>
<g><path style="opacity:1" fill="#a176ee" d="M 244.5,74.5 C 202.124,74.1777 159.791,74.511 117.5,75.5C 136.728,63.2072 156.395,51.3739 176.5,40C 181.44,38.9595 186.106,39.6261 190.5,42C 208.729,52.6077 226.729,63.441 244.5,74.5 Z"/></g>
<g><path style="opacity:0.009" fill="#000000" d="M 289.5,62.5 C 290.32,66.9177 288.987,67.4177 285.5,64C 287.058,63.79 288.391,63.29 289.5,62.5 Z"/></g>
<g><path style="opacity:0.05" fill="#000000" d="M 334.5,74.5 C 337.5,74.1667 338.833,75.5 338.5,78.5C 335.903,78.3568 333.569,77.5234 331.5,76C 332.737,75.7679 333.737,75.2679 334.5,74.5 Z"/></g>
<g><path style="opacity:1" fill="#9f72ef" d="M 244.5,74.5 C 253.1,77.7986 261.1,82.1319 268.5,87.5C 266.799,87.0338 265.299,87.0338 264,87.5C 263.333,84.8333 262.667,84.8333 262,87.5C 261.333,84.8333 260.667,84.8333 260,87.5C 259.333,84.8333 258.667,84.8333 258,87.5C 257.333,84.8333 256.667,84.8333 256,87.5C 255.333,84.8333 254.667,84.8333 254,87.5C 253.333,84.8333 252.667,84.8333 252,87.5C 251.333,84.8333 250.667,84.8333 250,87.5C 249.333,84.8333 248.667,84.8333 248,87.5C 247.333,84.8333 246.667,84.8333 246,87.5C 245.333,84.8333 244.667,84.8333 244,87.5C 243.333,84.8333 242.667,84.8333 242,87.5C 241.333,84.8333 240.667,84.8333 240,87.5C 239.333,84.8333 238.667,84.8333 238,87.5C 237.333,84.8333 236.667,84.8333 236,87.5C 235.333,84.8333 234.667,84.8333 234,87.5C 233.374,85.0087 232.541,85.0087 231.5,87.5C 230.459,85.0087 229.626,85.0087 229,87.5C 228.333,84.8333 227.667,84.8333 227,87.5C 226.333,84.8333 225.667,84.8333 225,87.5C 224.333,84.8333 223.667,84.8333 223,87.5C 222.333,84.8333 221.667,84.8333 221,87.5C 220.333,84.8333 219.667,84.8333 219,87.5C 218.333,84.8333 217.667,84.8333 217,87.5C 216.333,84.8333 215.667,84.8333 215,87.5C 214.333,84.8333 213.667,84.8333 213,87.5C 212.333,84.8333 211.667,84.8333 211,87.5C 210.333,84.8333 209.667,84.8333 209,87.5C 208.333,84.8333 207.667,84.8333 207,87.5C 206.333,84.8333 205.667,84.8333 205,87.5C 204.333,84.8333 203.667,84.8333 203,87.5C 202.333,84.8333 201.667,84.8333 201,87.5C 200.333,84.8333 199.667,84.8333 199,87.5C 198.333,84.8333 197.667,84.8333 197,87.5C 196.333,84.8333 195.667,84.8333 195,87.5C 194.333,84.8333 193.667,84.8333 193,87.5C 192.333,84.8333 191.667,84.8333 191,87.5C 190.333,84.8333 189.667,84.8333 189,87.5C 188.333,84.8333 187.667,84.8333 187,87.5C 186.333,84.8333 185.667,84.8333 185,87.5C 184.333,84.8333 183.667,84.8333 183,87.5C 182.333,84.8333 181.667,84.8333 181,87.5C 180.333,84.8333 179.667,84.8333 179,87.5C 178.333,84.8333 177.667,84.8333 177,87.5C 176.333,84.8333 175.667,84.8333 175,87.5C 174.333,84.8333 173.667,84.8333 173,87.5C 172.333,84.8333 171.667,84.8333 171,87.5C 170.333,84.8333 169.667,84.8333 169,87.5C 168.333,84.8333 167.667,84.8333 167,87.5C 166.333,84.8333 165.667,84.8333 165,87.5C 164.333,84.8333 163.667,84.8333 163,87.5C 162.333,84.8333 161.667,84.8333 161,87.5C 160.333,84.8333 159.667,84.8333 159,87.5C 158.333,84.8333 157.667,84.8333 157,87.5C 156.333,84.8333 155.667,84.8333 155,87.5C 154.333,84.8333 153.667,84.8333 153,87.5C 152.333,84.8333 151.667,84.8333 151,87.5C 150.333,84.8333 149.667,84.8333 149,87.5C 148.333,84.8333 147.667,84.8333 147,87.5C 146.333,84.8333 145.667,84.8333 145,87.5C 144.333,84.8333 143.667,84.8333 143,87.5C 142.333,84.8333 141.667,84.8333 141,87.5C 140.374,85.0087 139.541,85.0087 138.5,87.5C 137.459,85.0087 136.626,85.0087 136,87.5C 135.333,84.8333 134.667,84.8333 134,87.5C 133.333,84.8333 132.667,84.8333 132,87.5C 131.333,84.8333 130.667,84.8333 130,87.5C 129.333,84.8333 128.667,84.8333 128,87.5C 127.333,84.8333 126.667,84.8333 126,87.5C 125.333,84.8333 124.667,84.8333 124,87.5C 123.333,84.8333 122.667,84.8333 122,87.5C 121.333,84.8333 120.667,84.8333 120,87.5C 119.333,84.8333 118.667,84.8333 118,87.5C 117.333,84.8333 116.667,84.8333 116,87.5C 115.333,84.8333 114.667,84.8333 114,87.5C 113.333,84.8333 112.667,84.8333 112,87.5C 111.333,84.8333 110.667,84.8333 110,87.5C 109.333,84.8333 108.667,84.8333 108,87.5C 107.333,84.8333 106.667,84.8333 106,87.5C 105.333,84.8333 104.667,84.8333 104,87.5C 103.333,84.8333 102.667,84.8333 102,87.5C 101.29,86.0267 100.124,85.3601 98.5,85.5C 99.9842,83.9263 101.651,82.593 103.5,81.5C 107.945,78.943 112.612,76.943 117.5,75.5C 159.791,74.511 202.124,74.1777 244.5,74.5 Z"/></g>
<g><path style="opacity:0.046" fill="#000000" d="M 103.5,81.5 C 101.651,82.593 99.9842,83.9263 98.5,85.5C 97.8333,85.5 97.1667,85.5 96.5,85.5C 95.1991,84.1155 95.1991,82.6155 96.5,81C 98.8473,80.6664 101.181,80.833 103.5,81.5 Z"/></g>
<g><path style="opacity:1" fill="#9a6bed" d="M 96.5,85.5 C 97.1667,85.5 97.8333,85.5 98.5,85.5C 100.124,85.3601 101.29,86.0267 102,87.5C 102.667,84.8333 103.333,84.8333 104,87.5C 104.667,84.8333 105.333,84.8333 106,87.5C 106.667,84.8333 107.333,84.8333 108,87.5C 108.667,84.8333 109.333,84.8333 110,87.5C 110.667,84.8333 111.333,84.8333 112,87.5C 112.667,84.8333 113.333,84.8333 114,87.5C 114.667,84.8333 115.333,84.8333 116,87.5C 116.667,84.8333 117.333,84.8333 118,87.5C 118.667,84.8333 119.333,84.8333 120,87.5C 120.667,84.8333 121.333,84.8333 122,87.5C 122.667,84.8333 123.333,84.8333 124,87.5C 124.667,84.8333 125.333,84.8333 126,87.5C 126.667,84.8333 127.333,84.8333 128,87.5C 128.667,84.8333 129.333,84.8333 130,87.5C 130.667,84.8333 131.333,84.8333 132,87.5C 132.667,84.8333 133.333,84.8333 134,87.5C 134.667,84.8333 135.333,84.8333 136,87.5C 136.626,85.0087 137.459,85.0087 138.5,87.5C 139.541,85.0087 140.374,85.0087 141,87.5C 141.667,84.8333 142.333,84.8333 143,87.5C 143.667,84.8333 144.333,84.8333 145,87.5C 145.667,84.8333 146.333,84.8333 147,87.5C 147.667,84.8333 148.333,84.8333 149,87.5C 149.667,84.8333 150.333,84.8333 151,87.5C 151.667,84.8333 152.333,84.8333 153,87.5C 153.667,84.8333 154.333,84.8333 155,87.5C 155.667,84.8333 156.333,84.8333 157,87.5C 157.667,84.8333 158.333,84.8333 159,87.5C 159.667,84.8333 160.333,84.8333 161,87.5C 161.667,84.8333 162.333,84.8333 163,87.5C 163.667,84.8333 164.333,84.8333 165,87.5C 165.667,84.8333 166.333,84.8333 167,87.5C 167.667,84.8333 168.333,84.8333 169,87.5C 169.667,84.8333 170.333,84.8333 171,87.5C 171.667,84.8333 172.333,84.8333 173,87.5C 173.667,84.8333 174.333,84.8333 175,87.5C 175.667,84.8333 176.333,84.8333 177,87.5C 177.667,84.8333 178.333,84.8333 179,87.5C 179.667,84.8333 180.333,84.8333 181,87.5C 181.667,84.8333 182.333,84.8333 183,87.5C 183.667,84.8333 184.333,84.8333 185,87.5C 185.667,84.8333 186.333,84.8333 187,87.5C 187.667,84.8333 188.333,84.8333 189,87.5C 189.667,84.8333 190.333,84.8333 191,87.5C 191.667,84.8333 192.333,84.8333 193,87.5C 193.667,84.8333 194.333,84.8333 195,87.5C 195.667,84.8333 196.333,84.8333 197,87.5C 197.667,84.8333 198.333,84.8333 199,87.5C 199.667,84.8333 200.333,84.8333 201,87.5C 201.667,84.8333 202.333,84.8333 203,87.5C 203.667,84.8333 204.333,84.8333 205,87.5C 205.667,84.8333 206.333,84.8333 207,87.5C 207.667,84.8333 208.333,84.8333 209,87.5C 209.667,84.8333 210.333,84.8333 211,87.5C 211.667,84.8333 212.333,84.8333 213,87.5C 213.667,84.8333 214.333,84.8333 215,87.5C 215.667,84.8333 216.333,84.8333 217,87.5C 217.667,84.8333 218.333,84.8333 219,87.5C 219.667,84.8333 220.333,84.8333 221,87.5C 221.667,84.8333 222.333,84.8333 223,87.5C 223.667,84.8333 224.333,84.8333 225,87.5C 225.667,84.8333 226.333,84.8333 227,87.5C 227.667,84.8333 228.333,84.8333 229,87.5C 229.626,85.0087 230.459,85.0087 231.5,87.5C 232.541,85.0087 233.374,85.0087 234,87.5C 234.667,84.8333 235.333,84.8333 236,87.5C 236.667,84.8333 237.333,84.8333 238,87.5C 238.667,84.8333 239.333,84.8333 240,87.5C 240.667,84.8333 241.333,84.8333 242,87.5C 242.667,84.8333 243.333,84.8333 244,87.5C 244.667,84.8333 245.333,84.8333 246,87.5C 246.667,84.8333 247.333,84.8333 248,87.5C 248.667,84.8333 249.333,84.8333 250,87.5C 250.667,84.8333 251.333,84.8333 252,87.5C 252.667,84.8333 253.333,84.8333 254,87.5C 254.667,84.8333 255.333,84.8333 256,87.5C 256.667,84.8333 257.333,84.8333 258,87.5C 258.667,84.8333 259.333,84.8333 260,87.5C 260.667,84.8333 261.333,84.8333 262,87.5C 262.667,84.8333 263.333,84.8333 264,87.5C 265.299,87.0338 266.799,87.0338 268.5,87.5C 278.668,92.4134 288.334,98.08 297.5,104.5C 220.167,103.167 142.833,103.167 65.5,104.5C 76.0003,98.4176 86.3337,92.0842 96.5,85.5 Z"/></g>
<g><path style="opacity:0.007" fill="#000000" d="M 311.5,101.5 C 312.251,100.427 313.251,100.26 314.5,101C 313.552,101.483 312.552,101.649 311.5,101.5 Z"/></g>
<g><path style="opacity:0.258" fill="#030105" d="M 304.5,107.5 C 302.326,107.25 300.659,106.25 299.5,104.5C 300.794,103.71 301.961,102.71 303,101.5C 303.492,102.549 303.326,103.549 302.5,104.5C 303.193,105.518 303.859,106.518 304.5,107.5 Z"/></g>
<g><path style="opacity:0.014" fill="#000000" d="M 321.5,103.5 C 320.352,104.895 319.352,104.728 318.5,103C 319.749,102.26 320.749,102.427 321.5,103.5 Z"/></g>
<g><path style="opacity:1" fill="#9665eb" d="M 297.5,104.5 C 298.167,104.5 298.833,104.5 299.5,104.5C 300.659,106.25 302.326,107.25 304.5,107.5C 305.5,107.833 306.167,108.5 306.5,109.5C 308.475,110.646 309.975,112.313 311,114.5C 312.579,113.2 313.745,113.534 314.5,115.5C 312.234,115.859 310.401,115.192 309,113.5C 306.333,116.167 303.667,116.167 301,113.5C 298.333,116.167 295.667,116.167 293,113.5C 290.333,116.167 287.667,116.167 285,113.5C 282.333,116.167 279.667,116.167 277,113.5C 274.333,116.167 271.667,116.167 269,113.5C 266.333,116.167 263.667,116.167 261,113.5C 258.333,116.167 255.667,116.167 253,113.5C 250.333,116.167 247.667,116.167 245,113.5C 242.333,116.167 239.667,116.167 237,113.5C 234.667,116.167 232.333,116.167 230,113.5C 227.333,116.167 224.667,116.167 222,113.5C 219.333,116.167 216.667,116.167 214,113.5C 211.333,116.167 208.667,116.167 206,113.5C 203.333,116.167 200.667,116.167 198,113.5C 195.333,116.167 192.667,116.167 190,113.5C 187.333,116.167 184.667,116.167 182,113.5C 179.333,116.167 176.667,116.167 174,113.5C 171.333,116.167 168.667,116.167 166,113.5C 163.333,116.167 160.667,116.167 158,113.5C 155.333,116.167 152.667,116.167 150,113.5C 147.333,116.167 144.667,116.167 142,113.5C 139.667,116.167 137.333,116.167 135,113.5C 132.333,116.167 129.667,116.167 127,113.5C 124.333,116.167 121.667,116.167 119,113.5C 116.333,116.167 113.667,116.167 111,113.5C 108.333,116.167 105.667,116.167 103,113.5C 100.333,116.167 97.6667,116.167 95,113.5C 92.3333,116.167 89.6667,116.167 87,113.5C 84.3333,116.167 81.6667,116.167 79,113.5C 76.3333,116.167 73.6667,116.167 71,113.5C 68.3333,116.167 65.6667,116.167 63,113.5C 60.3333,116.167 57.6667,116.167 55,113.5C 53.2458,115.25 51.0792,115.917 48.5,115.5C 48.5,117.5 48.5,119.5 48.5,121.5C 47.3709,119.372 47.2042,117.039 48,114.5C 50.9877,112.601 53.8211,110.601 56.5,108.5C 57.609,108.443 58.609,108.11 59.5,107.5C 61.2163,105.975 63.2163,104.975 65.5,104.5C 142.833,103.167 220.167,103.167 297.5,104.5 Z"/></g>
<g><path style="opacity:0.004" fill="#000000" d="M 321.5,103.5 C 322.167,103.5 322.5,103.833 322.5,104.5C 322.167,104.167 321.833,103.833 321.5,103.5 Z"/></g>
<g><path style="opacity:0.044" fill="#000000" d="M 322.5,104.5 C 325.744,106.071 328.411,108.405 330.5,111.5C 329.224,112.645 327.891,112.645 326.5,111.5C 325.12,109.138 323.787,106.805 322.5,104.5 Z"/></g>
<g><path style="opacity:0.036" fill="#000000" d="M 59.5,107.5 C 58.609,108.11 57.609,108.443 56.5,108.5C 56.6941,104.995 57.6941,104.662 59.5,107.5 Z"/></g>
<g><path style="opacity:0.036" fill="#000000" d="M 310.5,106.5 C 310.56,105.957 310.893,105.624 311.5,105.5C 317.761,107.265 321.761,111.098 323.5,117C 321.054,114.554 318.387,111.887 315.5,109C 313.807,108.153 312.14,107.32 310.5,106.5 Z"/></g>
<g><path style="opacity:1" fill="#915fe7" d="M 314.5,115.5 C 314.5,117.833 314.5,120.167 314.5,122.5C 313.035,123.737 311.368,124.737 309.5,125.5C 305.252,125.624 301.918,127.29 299.5,130.5C 297.847,130.66 296.514,131.326 295.5,132.5C 292.966,132.259 291.3,133.259 290.5,135.5C 284.199,138.652 278.199,142.318 272.5,146.5C 270.956,146.703 269.622,147.37 268.5,148.5C 266.519,142.533 263.519,137.199 259.5,132.5C 257.47,129.818 254.803,128.151 251.5,127.5C 248.232,126.178 244.565,125.511 240.5,125.5C 235.799,125.592 231.132,125.925 226.5,126.5C 170.997,126.168 115.664,126.501 60.5,127.5C 55.9468,126.438 51.9468,124.438 48.5,121.5C 48.5,119.5 48.5,117.5 48.5,115.5C 51.0792,115.917 53.2458,115.25 55,113.5C 57.6667,116.167 60.3333,116.167 63,113.5C 65.6667,116.167 68.3333,116.167 71,113.5C 73.6667,116.167 76.3333,116.167 79,113.5C 81.6667,116.167 84.3333,116.167 87,113.5C 89.6667,116.167 92.3333,116.167 95,113.5C 97.6667,116.167 100.333,116.167 103,113.5C 105.667,116.167 108.333,116.167 111,113.5C 113.667,116.167 116.333,116.167 119,113.5C 121.667,116.167 124.333,116.167 127,113.5C 129.667,116.167 132.333,116.167 135,113.5C 137.333,116.167 139.667,116.167 142,113.5C 144.667,116.167 147.333,116.167 150,113.5C 152.667,116.167 155.333,116.167 158,113.5C 160.667,116.167 163.333,116.167 166,113.5C 168.667,116.167 171.333,116.167 174,113.5C 176.667,116.167 179.333,116.167 182,113.5C 184.667,116.167 187.333,116.167 190,113.5C 192.667,116.167 195.333,116.167 198,113.5C 200.667,116.167 203.333,116.167 206,113.5C 208.667,116.167 211.333,116.167 214,113.5C 216.667,116.167 219.333,116.167 222,113.5C 224.667,116.167 227.333,116.167 230,113.5C 232.333,116.167 234.667,116.167 237,113.5C 239.667,116.167 242.333,116.167 245,113.5C 247.667,116.167 250.333,116.167 253,113.5C 255.667,116.167 258.333,116.167 261,113.5C 263.667,116.167 266.333,116.167 269,113.5C 271.667,116.167 274.333,116.167 277,113.5C 279.667,116.167 282.333,116.167 285,113.5C 287.667,116.167 290.333,116.167 293,113.5C 295.667,116.167 298.333,116.167 301,113.5C 303.667,116.167 306.333,116.167 309,113.5C 310.401,115.192 312.234,115.859 314.5,115.5 Z"/></g>
<g><path style="opacity:0.248" fill="#000000" d="M 315.5,114.5 C 318.034,116.916 318.034,119.25 315.5,121.5C 315.5,119.167 315.5,116.833 315.5,114.5 Z"/></g>
<g><path style="opacity:1" fill="#573b88" d="M 306.5,109.5 C 309.948,110.39 312.948,112.057 315.5,114.5C 315.5,116.833 315.5,119.167 315.5,121.5C 315.5,122.167 315.167,122.5 314.5,122.5C 314.5,120.167 314.5,117.833 314.5,115.5C 313.745,113.534 312.579,113.2 311,114.5C 309.975,112.313 308.475,110.646 306.5,109.5 Z"/></g>
<g><path style="opacity:0.013" fill="#000000" d="M 329.5,119.5 C 333.31,120.754 333.31,121.754 329.5,122.5C 329.5,121.5 329.5,120.5 329.5,119.5 Z"/></g>
<g><path style="opacity:0.055" fill="#000000" d="M 320.5,122.5 C 321.791,123.542 321.791,124.708 320.5,126C 317.243,126.749 314.576,128.416 312.5,131C 311.365,131.749 310.365,131.583 309.5,130.5C 313.185,127.809 316.852,125.142 320.5,122.5 Z"/></g>
<g><path style="opacity:0.004" fill="#000000" d="M 43.5,125.5 C 44.8333,126.167 44.8333,126.167 43.5,125.5 Z"/></g>
<g><path style="opacity:0.052" fill="#18111f" d="M 251.5,127.5 C 243.045,125.91 234.712,126.244 226.5,128.5C 226.5,127.833 226.5,127.167 226.5,126.5C 231.132,125.925 235.799,125.592 240.5,125.5C 244.565,125.511 248.232,126.178 251.5,127.5 Z"/></g>
<g><path style="opacity:0.247" fill="#100a16" d="M 309.5,125.5 C 307.681,126.584 306.015,127.918 304.5,129.5C 302.955,130.452 301.288,130.785 299.5,130.5C 301.918,127.29 305.252,125.624 309.5,125.5 Z"/></g>
<g><path style="opacity:0.008" fill="#000000" d="M 333.5,125.5 C 334.756,125.461 335.756,125.961 336.5,127C 335.167,127.667 333.833,127.667 332.5,127C 333.056,126.617 333.389,126.117 333.5,125.5 Z"/></g>
<g><path style="opacity:0.116" fill="#09040e" d="M 251.5,127.5 C 254.803,128.151 257.47,129.818 259.5,132.5C 256.296,131.617 253.629,129.95 251.5,127.5 Z"/></g>
<g><path style="opacity:0.004" fill="#000000" d="M 325.5,127.5 C 326.833,128.167 326.833,128.167 325.5,127.5 Z"/></g>
<g><path style="opacity:0.006" fill="#000000" d="M 46.5,129.5 C 46.8966,128.475 47.5632,128.308 48.5,129C 47.9056,129.464 47.2389,129.631 46.5,129.5 Z"/></g>
<g><path style="opacity:0.006" fill="#000000" d="M 233.5,131.5 C 235.628,130.371 237.961,130.204 240.5,131C 238.19,131.497 235.857,131.663 233.5,131.5 Z"/></g>
<g><path style="opacity:0.004" fill="#000000" d="M 242.5,130.5 C 243.833,131.167 243.833,131.167 242.5,130.5 Z"/></g>
<g><path style="opacity:0.004" fill="#000000" d="M 245.5,130.5 C 246.833,131.167 246.833,131.167 245.5,130.5 Z"/></g>
<g><path style="opacity:0.004" fill="#000000" d="M 248.5,130.5 C 249.833,131.167 249.833,131.167 248.5,130.5 Z"/></g>
<g><path style="opacity:0.131" fill="#06090e" d="M 322.5,131.5 C 320.517,132.471 318.517,133.471 316.5,134.5C 315.833,134.5 315.167,134.5 314.5,134.5C 316.481,131.159 319.148,130.159 322.5,131.5 Z"/></g>
<g><path style="opacity:0.047" fill="#000000" d="M 54.5,131.5 C 55.8333,132.167 55.8333,132.167 54.5,131.5 Z"/></g>
<g><path style="opacity:0.027" fill="#08040e" d="M 299.5,130.5 C 298.713,132.104 297.38,132.771 295.5,132.5C 296.514,131.326 297.847,130.66 299.5,130.5 Z"/></g>
<g><path style="opacity:0.439" fill="#392363" d="M 295.5,132.5 C 294.101,133.89 292.434,134.89 290.5,135.5C 291.3,133.259 292.966,132.259 295.5,132.5 Z"/></g>
<g><path style="opacity:0.035" fill="#000000" d="M 300.5,133.5 C 304.31,134.754 304.31,135.754 300.5,136.5C 300.5,135.5 300.5,134.5 300.5,133.5 Z"/></g>
<g><path style="opacity:1" fill="#8c57e5" d="M 226.5,126.5 C 226.5,127.167 226.5,127.833 226.5,128.5C 223.925,129.568 221.758,131.235 220,133.5C 216.711,137.093 214.211,141.093 212.5,145.5C 211.593,147.657 210.927,149.99 210.5,152.5C 175.329,152.168 140.329,152.502 105.5,153.5C 98.9085,149.972 92.2418,146.639 85.5,143.5C 83.8525,141.674 81.8525,140.34 79.5,139.5C 72.9616,135.736 66.6283,131.736 60.5,127.5C 115.664,126.501 170.997,126.168 226.5,126.5 Z"/></g>
<g><path style="opacity:0.092" fill="#141a23" d="M 234.5,136.5 C 233.172,138.719 231.172,140.052 228.5,140.5C 229.853,138.262 231.853,136.929 234.5,136.5 Z"/></g>
<g><path style="opacity:1" fill="#2c4466" d="M 314.5,134.5 C 315.167,134.5 315.833,134.5 316.5,134.5C 313.322,137.258 309.655,139.258 305.5,140.5C 308.218,138.14 311.218,136.14 314.5,134.5 Z"/></g>
<g><path style="opacity:0.004" fill="#000000" d="M 221.5,138.5 C 222.833,139.167 222.833,139.167 221.5,138.5 Z"/></g>
<g><path style="opacity:0.028" fill="#000000" d="M 66.5,139.5 C 68.7834,139.608 70.7834,140.441 72.5,142C 70.8333,142.667 69.1667,142.667 67.5,142C 66.7476,141.329 66.4142,140.496 66.5,139.5 Z"/></g>
<g><path style="opacity:0.081" fill="#040106" d="M 79.5,139.5 C 81.8525,140.34 83.8525,141.674 85.5,143.5C 82.733,143.13 80.733,141.796 79.5,139.5 Z"/></g>
<g><path style="opacity:0.007" fill="#000000" d="M 217.5,142.5 C 217.517,140.972 218.184,140.472 219.5,141C 218.956,141.717 218.289,142.217 217.5,142.5 Z"/></g>
<g><path style="opacity:0.027" fill="#1a2534" d="M 51.5,136.5 C 55.5768,138.844 59.5768,141.177 63.5,143.5C 58.4728,142.662 54.4728,140.329 51.5,136.5 Z"/></g>
<g><path style="opacity:0.004" fill="#000000" d="M 217.5,142.5 C 217.631,143.239 217.464,143.906 217,144.5C 216.308,143.563 216.475,142.897 217.5,142.5 Z"/></g>
<g><path style="opacity:0.027" fill="#000000" d="M 79.5,146.5 C 81.472,147.451 83.472,148.451 85.5,149.5C 82.4739,150.654 80.4739,149.654 79.5,146.5 Z"/></g>
<g><path style="opacity:0.317" fill="#08040d" d="M 85.5,143.5 C 92.2418,146.639 98.9085,149.972 105.5,153.5C 109.36,160.448 107.36,164.448 99.5,165.5C 101.355,163.967 103.188,162.3 105,160.5C 104.981,158.893 104.815,157.226 104.5,155.5C 97.6401,152.242 91.3068,148.242 85.5,143.5 Z"/></g>
<g><path style="opacity:0.055" fill="#10141c" d="M 68.5,146.5 C 73.0242,148.043 77.0242,150.377 80.5,153.5C 78.6916,153.509 77.0249,153.009 75.5,152C 73.0975,150.147 70.7641,148.314 68.5,146.5 Z"/></g>
<g><path style="opacity:0.021" fill="#000000" d="M 88.5,151.5 C 90.337,151.639 90.6704,152.306 89.5,153.5C 88.7025,153.043 88.3691,152.376 88.5,151.5 Z"/></g>
<g><path style="opacity:0.141" fill="#4d2e80" d="M 212.5,145.5 C 212.019,152.754 213.019,159.754 215.5,166.5C 214.503,166.53 213.836,166.03 213.5,165C 212.176,160.871 211.176,156.705 210.5,152.5C 210.927,149.99 211.593,147.657 212.5,145.5 Z"/></g>
<g><path style="opacity:0.028" fill="#000000" d="M 99.5,157.5 C 97.5714,157.769 95.9047,157.269 94.5,156C 96.6742,155.123 98.3409,155.623 99.5,157.5 Z"/></g>
<g><path style="opacity:0.146" fill="#05070b" d="M 86.5,156.5 C 89.1136,156.925 91.1136,158.258 92.5,160.5C 89.6373,160.239 86.9706,161.239 84.5,163.5C 85.9395,161.412 86.6061,159.079 86.5,156.5 Z"/></g>
<g><path style="opacity:0.004" fill="#000000" d="M 99.5,157.5 C 100.833,158.167 100.833,158.167 99.5,157.5 Z"/></g>
<g><path style="opacity:0.004" fill="#000000" d="M 218.5,161.5 C 219.833,162.167 219.833,162.167 218.5,161.5 Z"/></g>
<g><path style="opacity:0.004" fill="#000000" d="M 218.5,162.5 C 217.833,163.167 217.833,163.167 218.5,162.5 Z"/></g>
<g><path style="opacity:1" fill="#5a9ceb" d="M 322.5,131.5 C 323.833,131.5 324.5,132.167 324.5,133.5C 325.469,148.785 325.802,164.119 325.5,179.5C 296.329,179.831 267.329,179.498 238.5,178.5C 240.921,176.377 241.088,174.044 239,171.5C 233.038,169.032 228.538,165.032 225.5,159.5C 223.663,156.481 223.163,153.148 224,149.5C 225.038,146.185 226.538,143.185 228.5,140.5C 231.172,140.052 233.172,138.719 234.5,136.5C 240.275,135.775 245.608,136.941 250.5,140C 253.072,142.313 254.739,145.146 255.5,148.5C 255.495,151.532 255.162,154.532 254.5,157.5C 254.34,159.355 255.007,160.688 256.5,161.5C 258.186,164.005 260.519,164.838 263.5,164C 277.366,155.976 291.366,148.143 305.5,140.5C 309.655,139.258 313.322,137.258 316.5,134.5C 318.517,133.471 320.517,132.471 322.5,131.5 Z"/></g>
<g><path style="opacity:0.004" fill="#000000" d="M 260.5,158.5 C 261.833,159.167 261.833,159.167 260.5,158.5 Z"/></g>
<g><path style="opacity:0.971" fill="#273d5a" d="M 255.5,148.5 C 256.106,152.749 256.44,157.083 256.5,161.5C 255.007,160.688 254.34,159.355 254.5,157.5C 255.162,154.532 255.495,151.532 255.5,148.5 Z"/></g>
<g><path style="opacity:0.027" fill="#000000" d="M 260.5,153.5 C 262.852,154.543 263.019,155.876 261,157.5C 260.51,156.207 260.343,154.873 260.5,153.5 Z"/></g>
<g><path style="opacity:0.004" fill="#000000" d="M 272.5,146.5 C 273.167,146.5 273.5,146.833 273.5,147.5C 273.167,147.167 272.833,146.833 272.5,146.5 Z"/></g>
<g><path style="opacity:0.018" fill="#000000" d="M 273.5,147.5 C 274.458,147.047 275.292,146.381 276,145.5C 279.56,146.105 279.227,147.105 275,148.5C 274.235,148.43 273.735,148.097 273.5,147.5 Z"/></g>
<g><path style="opacity:0.004" fill="#000000" d="M 281.5,143.5 C 282.833,144.167 282.833,144.167 281.5,143.5 Z"/></g>
<g><path style="opacity:0.004" fill="#000000" d="M 261.5,141.5 C 262.833,142.167 262.833,142.167 261.5,141.5 Z"/></g>
<g><path style="opacity:0.005" fill="#000000" d="M 293.5,137.5 C 295.379,137.393 295.712,137.893 294.5,139C 291.125,139.632 290.791,139.132 293.5,137.5 Z"/></g>
<g><path style="opacity:0.021" fill="#000000" d="M 261.5,141.5 C 259.86,140.68 258.193,139.847 256.5,139C 259.761,136.63 261.428,137.464 261.5,141.5 Z"/></g>
<g><path style="opacity:0.012" fill="#000000" d="M 89.5,164.5 C 90.7965,165.849 90.6298,167.182 89,168.5C 88.4209,167.072 88.5876,165.738 89.5,164.5 Z"/></g>
<g><path style="opacity:0.005" fill="#000000" d="M 220.5,164.5 C 222.337,164.639 222.67,165.306 221.5,166.5C 220.702,166.043 220.369,165.376 220.5,164.5 Z"/></g>
<g><path style="opacity:0.115" fill="#010004" d="M 99.5,165.5 C 97.5398,167.156 95.5398,168.823 93.5,170.5C 94.2876,167.379 96.2876,165.712 99.5,165.5 Z"/></g>
<g><path style="opacity:0.025" fill="#070209" d="M 215.5,166.5 C 216.906,166.973 217.573,167.973 217.5,169.5C 216.833,169.167 216.167,168.833 215.5,168.5C 215.5,167.833 215.5,167.167 215.5,166.5 Z"/></g>
<g><path style="opacity:0.004" fill="#000000" d="M 222.5,167.5 C 223.713,168.497 223.546,169.497 222,170.5C 221.53,169.423 221.697,168.423 222.5,167.5 Z"/></g>
<g><path style="opacity:1" fill="#7f47de" d="M 210.5,152.5 C 211.176,156.705 212.176,160.871 213.5,165C 213.836,166.03 214.503,166.53 215.5,166.5C 215.5,167.167 215.5,167.833 215.5,168.5C 216.591,171.428 218.591,173.594 221.5,175C 220.944,175.383 220.611,175.883 220.5,176.5C 207.971,182.23 195.971,188.897 184.5,196.5C 181.729,196.579 179.063,196.079 176.5,195C 167.54,188.875 158.207,183.375 148.5,178.5C 147.833,178.5 147.167,178.5 146.5,178.5C 142.57,175.858 138.57,173.192 134.5,170.5C 132.883,169.028 130.883,168.361 128.5,168.5C 126.955,168.511 125.622,168.844 124.5,169.5C 122.744,175.237 121.744,181.237 121.5,187.5C 121.238,190.699 119.572,192.699 116.5,193.5C 110.167,193.5 103.833,193.5 97.5,193.5C 95.9128,190.732 94.0795,188.065 92,185.5C 91.2206,180.682 91.7206,176.015 93.5,171.5C 93.5,171.167 93.5,170.833 93.5,170.5C 95.5398,168.823 97.5398,167.156 99.5,165.5C 107.36,164.448 109.36,160.448 105.5,153.5C 140.329,152.502 175.329,152.168 210.5,152.5 Z"/></g>
<g><path style="opacity:0.239" fill="#3b2265" d="M 124.5,169.5 C 125.622,168.844 126.955,168.511 128.5,168.5C 130.883,168.361 132.883,169.028 134.5,170.5C 133.833,170.5 133.167,170.5 132.5,170.5C 130.5,170.167 128.5,169.833 126.5,169.5C 125.833,169.5 125.167,169.5 124.5,169.5 Z"/></g>
<g><path style="opacity:0.443" fill="#1f2f45" d="M 84.5,163.5 C 84.0469,167.027 82.5469,170.027 80,172.5C 78.7235,176.097 78.3901,179.764 79,183.5C 80.9756,184.543 81.4756,185.877 80.5,187.5C 81.1892,189.444 81.6892,191.444 82,193.5C 83.7242,195.413 85.2242,197.413 86.5,199.5C 83.6181,198.303 81.4514,196.303 80,193.5C 79.7963,190.203 78.963,187.203 77.5,184.5C 76.4811,176.222 78.8145,169.222 84.5,163.5 Z"/></g>
<g><path style="opacity:0.174" fill="#040106" d="M 132.5,170.5 C 133.167,170.5 133.833,170.5 134.5,170.5C 138.57,173.192 142.57,175.858 146.5,178.5C 143.956,178.896 141.789,178.229 140,176.5C 139.667,176.833 139.333,177.167 139,177.5C 136.634,175.195 134.467,172.862 132.5,170.5 Z"/></g>
<g><path style="opacity:1" fill="#381f58" d="M 215.5,168.5 C 216.167,168.833 216.833,169.167 217.5,169.5C 219.004,171.836 221.004,173.669 223.5,175C 222.756,176.039 221.756,176.539 220.5,176.5C 220.611,175.883 220.944,175.383 221.5,175C 218.591,173.594 216.591,171.428 215.5,168.5 Z"/></g>
<g><path style="opacity:0.004" fill="#000000" d="M 87.5,173.5 C 88.525,173.897 88.6917,174.563 88,175.5C 87.5357,174.906 87.369,174.239 87.5,173.5 Z"/></g>
<g><path style="opacity:0.74" fill="#291842" d="M 124.5,169.5 C 125.167,169.5 125.833,169.5 126.5,169.5C 124.154,174.241 123.321,179.241 124,184.5C 123.623,185.942 122.79,186.942 121.5,187.5C 121.744,181.237 122.744,175.237 124.5,169.5 Z"/></g>
<g><path style="opacity:0.008" fill="#000000" d="M 136.5,178.5 C 134.647,179.614 134.147,178.948 135,176.5C 135.717,177.044 136.217,177.711 136.5,178.5 Z"/></g>
<g><path style="opacity:0.019" fill="#000000" d="M 82.5,178.5 C 83.675,178.281 84.675,178.614 85.5,179.5C 83.9483,180.798 82.9483,180.465 82.5,178.5 Z"/></g>
<g><path style="opacity:0.006" fill="#000000" d="M 136.5,178.5 C 137.239,178.369 137.906,178.536 138.5,179C 137.563,179.692 136.897,179.525 136.5,178.5 Z"/></g>
<g><path style="opacity:0.222" fill="#07020c" d="M 148.5,178.5 C 158.207,183.375 167.54,188.875 176.5,195C 179.063,196.079 181.729,196.579 184.5,196.5C 184.108,198.179 183.608,199.846 183,201.5C 182.385,199.884 181.385,198.551 180,197.5C 175.967,200.675 174.134,200.009 174.5,195.5C 166.142,191.657 158.142,187.157 150.5,182C 149.177,181.184 148.511,180.017 148.5,178.5 Z"/></g>
<g><path style="opacity:1" fill="#579ceb" d="M 51.5,136.5 C 54.4728,140.329 58.4728,142.662 63.5,143.5C 65.1494,144.473 66.816,145.473 68.5,146.5C 70.7641,148.314 73.0975,150.147 75.5,152C 77.0249,153.009 78.6916,153.509 80.5,153.5C 82.5,154.5 84.5,155.5 86.5,156.5C 86.6061,159.079 85.9395,161.412 84.5,163.5C 78.8145,169.222 76.4811,176.222 77.5,184.5C 77.2865,186.144 77.6198,187.644 78.5,189C 76.892,189.658 75.7253,189.158 75,187.5C 74.3333,190.167 73.6667,190.167 73,187.5C 72.3333,190.167 71.6667,190.167 71,187.5C 69.6667,190.167 68.3333,190.167 67,187.5C 66.3333,190.167 65.6667,190.167 65,187.5C 64.3333,190.167 63.6667,190.167 63,187.5C 61.6667,190.167 60.3333,190.167 59,187.5C 58.3333,190.167 57.6667,190.167 57,187.5C 56.3333,190.167 55.6667,190.167 55,187.5C 53.6667,190.167 52.3333,190.167 51,187.5C 50.3333,190.167 49.6667,190.167 49,187.5C 48.3333,190.167 47.6667,190.167 47,187.5C 46,190.167 45,190.167 44,187.5C 43.3333,190.167 42.6667,190.167 42,187.5C 41.3333,190.167 40.6667,190.167 40,187.5C 38.872,189.345 38.372,191.345 38.5,193.5C 38.1667,193.5 37.8333,193.5 37.5,193.5C 37.3334,173.831 37.5,154.164 38,134.5C 39.126,133.056 40.626,132.39 42.5,132.5C 45.8899,133.03 48.8899,134.363 51.5,136.5 Z"/></g>
<g><path style="opacity:0.009" fill="#000000" d="M 217.5,179.5 C 218.289,179.783 218.956,180.283 219.5,181C 218.184,181.528 217.517,181.028 217.5,179.5 Z"/></g>
<g><path style="opacity:0.007" fill="#000000" d="M 138.5,180.5 C 139.289,180.783 139.956,181.283 140.5,182C 139.184,182.528 138.517,182.028 138.5,180.5 Z"/></g>
<g><path style="opacity:0.306" fill="#070a10" d="M 225.5,159.5 C 228.538,165.032 233.038,169.032 239,171.5C 241.088,174.044 240.921,176.377 238.5,178.5C 222.693,188.24 206.693,197.74 190.5,207C 189.619,207.708 188.953,208.542 188.5,209.5C 187.833,210.5 187.167,211.5 186.5,212.5C 185.657,210.827 184.324,209.66 182.5,209C 200.6,198.78 218.6,188.28 236.5,177.5C 237.386,173.013 235.386,170.346 230.5,169.5C 227.919,166.596 226.252,163.263 225.5,159.5 Z"/></g>
<g><path style="opacity:0.004" fill="#000000" d="M 143.5,182.5 C 144.525,182.897 144.692,183.563 144,184.5C 143.536,183.906 143.369,183.239 143.5,182.5 Z"/></g>
<g><path style="opacity:0.004" fill="#000000" d="M 83.5,184.5 C 84.8333,185.167 84.8333,185.167 83.5,184.5 Z"/></g>
<g><path style="opacity:0.031" fill="#000000" d="M 157.5,190.5 C 154.167,189.5 150.833,188.5 147.5,187.5C 147.5,186.5 147.5,185.5 147.5,184.5C 151.461,185.479 154.794,187.479 157.5,190.5 Z"/></g>
<g><path style="opacity:0.89" fill="#281740" d="M 93.5,171.5 C 91.7206,176.015 91.2206,180.682 92,185.5C 94.0795,188.065 95.9128,190.732 97.5,193.5C 94.321,191.154 91.6544,188.321 89.5,185C 89.5976,182.48 89.5976,179.98 89.5,177.5C 89.9324,174.819 91.2657,172.819 93.5,171.5 Z"/></g>
<g><path style="opacity:0.006" fill="#000000" d="M 157.5,190.5 C 158.239,190.369 158.906,190.536 159.5,191C 158.563,191.692 157.897,191.525 157.5,190.5 Z"/></g>
<g><path style="opacity:0.006" fill="#000000" d="M 160.5,193.5 C 163.253,192.341 165.919,192.841 168.5,195C 167.975,195.692 167.308,196.192 166.5,196.5C 164.757,194.962 162.757,193.962 160.5,193.5 Z"/></g>
<g><path style="opacity:0.005" fill="#000000" d="M 170.5,196.5 C 171.289,196.783 171.956,197.283 172.5,198C 171.184,198.528 170.517,198.028 170.5,196.5 Z"/></g>
<g><path style="opacity:0.018" fill="#000000" d="M 191.5,196.5 C 193.842,196.775 193.842,197.608 191.5,199C 190.241,199.982 188.908,200.315 187.5,200C 188.731,198.595 190.064,197.429 191.5,196.5 Z"/></g>
<g><path style="opacity:0.004" fill="#000000" d="M 178.5,203.5 C 179.833,204.167 179.833,204.167 178.5,203.5 Z"/></g>
<g><path style="opacity:0.004" fill="#000000" d="M 178.5,204.5 C 177.833,205.167 177.833,205.167 178.5,204.5 Z"/></g>
<g><path style="opacity:1" fill="#4895e6" d="M 77.5,184.5 C 78.963,187.203 79.7963,190.203 80,193.5C 81.4514,196.303 83.6181,198.303 86.5,199.5C 87.8803,202.552 90.2136,204.718 93.5,206C 108.297,212.134 120.963,209.134 131.5,197C 131.272,196.601 130.938,196.435 130.5,196.5C 132.895,193.272 134.229,189.605 134.5,185.5C 137.721,186.111 140.721,187.278 143.5,189C 151.593,194.375 159.926,199.209 168.5,203.5C 170.173,206.167 172.507,208.167 175.5,209.5C 175.5,209.833 175.5,210.167 175.5,210.5C 174.523,213.287 174.19,216.287 174.5,219.5C 129.018,219.45 83.6843,219.45 38.5,219.5C 38.5,210.833 38.5,202.167 38.5,193.5C 38.372,191.345 38.872,189.345 40,187.5C 40.6667,190.167 41.3333,190.167 42,187.5C 42.6667,190.167 43.3333,190.167 44,187.5C 45,190.167 46,190.167 47,187.5C 47.6667,190.167 48.3333,190.167 49,187.5C 49.6667,190.167 50.3333,190.167 51,187.5C 52.3333,190.167 53.6667,190.167 55,187.5C 55.6667,190.167 56.3333,190.167 57,187.5C 57.6667,190.167 58.3333,190.167 59,187.5C 60.3333,190.167 61.6667,190.167 63,187.5C 63.6667,190.167 64.3333,190.167 65,187.5C 65.6667,190.167 66.3333,190.167 67,187.5C 68.3333,190.167 69.6667,190.167 71,187.5C 71.6667,190.167 72.3333,190.167 73,187.5C 73.6667,190.167 74.3333,190.167 75,187.5C 75.7253,189.158 76.892,189.658 78.5,189C 77.6198,187.644 77.2865,186.144 77.5,184.5 Z"/></g>
<g><path style="opacity:0.281" fill="#0c1117" d="M 130.5,196.5 C 130.938,196.435 131.272,196.601 131.5,197C 120.963,209.134 108.297,212.134 93.5,206C 90.2136,204.718 87.8803,202.552 86.5,199.5C 92.4435,202.135 98.4435,204.802 104.5,207.5C 114.419,206.534 123.085,202.867 130.5,196.5 Z"/></g>
<g><path style="opacity:0.004" fill="#000000" d="M 102.5,202.5 C 103.833,203.167 103.833,203.167 102.5,202.5 Z"/></g>
<g><path style="opacity:0.006" fill="#000000" d="M 102.5,202.5 C 101.127,202.657 99.7932,202.49 98.5,202C 100.066,201.235 101.399,201.402 102.5,202.5 Z"/></g>
<g><path style="opacity:0.012" fill="#000000" d="M 127.5,193.5 C 126.542,194.962 125.376,196.295 124,197.5C 123.832,195.159 124.999,193.826 127.5,193.5 Z"/></g>
<g><path style="opacity:1" fill="#552c98" d="M 97.5,193.5 C 103.833,193.5 110.167,193.5 116.5,193.5C 110.205,198.684 103.872,198.684 97.5,193.5 Z"/></g>
<g><path style="opacity:0.004" fill="#000000" d="M 127.5,192.5 C 128.833,193.167 128.833,193.167 127.5,192.5 Z"/></g>
<g><path style="opacity:0.005" fill="#000000" d="M 88.5,193.5 C 89.2506,192.427 90.2506,192.26 91.5,193C 90.552,193.483 89.552,193.649 88.5,193.5 Z"/></g>
<g><path style="opacity:1" fill="#4a97e8" d="M 238.5,178.5 C 267.329,179.498 296.329,179.831 325.5,179.5C 325.5,192.833 325.5,206.167 325.5,219.5C 279.833,219.5 234.167,219.5 188.5,219.5C 188.5,216.167 188.5,212.833 188.5,209.5C 188.953,208.542 189.619,207.708 190.5,207C 206.693,197.74 222.693,188.24 238.5,178.5 Z"/></g>
<g><path style="opacity:0.026" fill="#0b0f15" d="M 168.5,203.5 C 169.397,204.598 170.23,204.598 171,203.5C 172.45,206.642 174.95,208.308 178.5,208.5C 177.364,208.964 176.364,209.298 175.5,209.5C 172.507,208.167 170.173,206.167 168.5,203.5 Z"/></g>
<g><path style="opacity:0.01" fill="#000000" d="M 179.5,208.5 C 179.897,207.475 180.563,207.308 181.5,208C 180.906,208.464 180.239,208.631 179.5,208.5 Z"/></g>
<g><path style="opacity:0.036" fill="#000000" d="M 178.5,212.5 C 179.756,212.461 180.756,212.961 181.5,214C 180.203,219.957 180.203,225.957 181.5,232C 181.37,233.059 180.87,233.892 180,234.5C 178.884,227.208 178.384,219.874 178.5,212.5 Z"/></g>
<g><path style="opacity:1" fill="#366ba0" d="M 188.5,209.5 C 188.5,212.833 188.5,216.167 188.5,219.5C 188.5,229.167 188.5,238.833 188.5,248.5C 188.5,249.833 188.5,251.167 188.5,252.5C 191.193,252.428 193.86,252.095 196.5,251.5C 198.03,251.64 199.03,252.307 199.5,253.5C 195.5,253.5 191.5,253.5 187.5,253.5C 186.675,239.753 186.341,226.086 186.5,212.5C 187.167,211.5 187.833,210.5 188.5,209.5 Z"/></g>
<g><path style="opacity:1" fill="#3c91e5" d="M 174.5,219.5 C 174.5,229.167 174.5,238.833 174.5,248.5C 129.167,248.5 83.8333,248.5 38.5,248.5C 38.5,238.833 38.5,229.167 38.5,219.5C 83.6843,219.45 129.018,219.45 174.5,219.5 Z"/></g>
<g><path style="opacity:1" fill="#3c91e5" d="M 188.5,219.5 C 234.167,219.5 279.833,219.5 325.5,219.5C 325.5,229.167 325.5,238.833 325.5,248.5C 279.833,248.5 234.167,248.5 188.5,248.5C 188.5,238.833 188.5,229.167 188.5,219.5 Z"/></g>
<g><path style="opacity:0.049" fill="#000000" d="M 179.5,236.5 C 180.117,236.611 180.617,236.944 181,237.5C 181.832,247.184 181.665,256.851 180.5,266.5C 180.746,256.524 180.413,246.524 179.5,236.5 Z"/></g>
<g><path style="opacity:0.08" fill="#000000" d="M -0.5,242.5 C 1.92236,244.048 1.92236,245.714 -0.5,247.5C -0.5,245.833 -0.5,244.167 -0.5,242.5 Z"/></g>
<g><path style="opacity:0.004" fill="#000000" d="M 185.5,249.5 C 186.833,250.167 186.833,250.167 185.5,249.5 Z"/></g>
<g><path style="opacity:0.017" fill="#000000" d="M 190.5,255.5 C 194.129,255.74 197.795,256.074 201.5,256.5C 201.167,257.5 200.5,258.167 199.5,258.5C 196.039,258.232 193.039,257.232 190.5,255.5 Z"/></g>
<g><path style="opacity:0.004" fill="#000000" d="M 203.5,255.5 C 204.833,256.167 204.833,256.167 203.5,255.5 Z"/></g>
<g><path style="opacity:0.659" fill="#1f4b76" d="M 175.5,210.5 C 175.537,230.235 175.871,249.901 176.5,269.5C 175.883,269.389 175.383,269.056 175,268.5C 174.5,261.842 174.334,255.175 174.5,248.5C 174.5,238.833 174.5,229.167 174.5,219.5C 174.19,216.287 174.523,213.287 175.5,210.5 Z"/></g>
<g><path style="opacity:0.034" fill="#000000" d="M 216.5,260.5 C 217.167,260.5 217.5,260.833 217.5,261.5C 215.874,263.243 213.874,263.743 211.5,263C 213.03,261.88 214.697,261.046 216.5,260.5 Z"/></g>
<g><path style="opacity:1" fill="#2f8be0" d="M 37.5,193.5 C 37.8333,193.5 38.1667,193.5 38.5,193.5C 38.5,202.167 38.5,210.833 38.5,219.5C 38.5,229.167 38.5,238.833 38.5,248.5C 83.8333,248.5 129.167,248.5 174.5,248.5C 174.334,255.175 174.5,261.842 175,268.5C 175.383,269.056 175.883,269.389 176.5,269.5C 177.71,269.932 178.71,270.599 179.5,271.5C 180.312,272.633 181.979,272.8 184.5,272C 185.731,270.595 187.064,269.429 188.5,268.5C 191.797,265.237 195.797,264.071 200.5,265C 206.899,266.17 211.232,269.67 213.5,275.5C 212.539,277.265 212.205,279.265 212.5,281.5C 154.5,281.5 96.5,281.5 38.5,281.5C 38.6287,283.216 38.962,284.883 39.5,286.5C 38.8826,286.389 38.3826,286.056 38,285.5C 37.5,254.835 37.3334,224.168 37.5,193.5 Z"/></g>
<g><path style="opacity:1" fill="#2d8adf" d="M 324.5,133.5 C 325.117,133.611 325.617,133.944 326,134.5C 326.667,185.167 326.667,235.833 326,286.5C 324.833,289 323,290.833 320.5,292C 313.505,295.831 306.505,299.665 299.5,303.5C 298.25,303.423 297.417,302.756 297,301.5C 296.333,304.167 295.667,304.167 295,301.5C 294.333,304.167 293.667,304.167 293,301.5C 292.333,304.167 291.667,304.167 291,301.5C 290.333,304.167 289.667,304.167 289,301.5C 288.333,304.167 287.667,304.167 287,301.5C 286.333,304.167 285.667,304.167 285,301.5C 284.333,304.167 283.667,304.167 283,301.5C 282.333,304.167 281.667,304.167 281,301.5C 280.333,304.167 279.667,304.167 279,301.5C 278.333,304.167 277.667,304.167 277,301.5C 276.333,304.167 275.667,304.167 275,301.5C 274.333,304.167 273.667,304.167 273,301.5C 272.333,304.167 271.667,304.167 271,301.5C 270.333,304.167 269.667,304.167 269,301.5C 268.333,304.167 267.667,304.167 267,301.5C 266.333,304.167 265.667,304.167 265,301.5C 264.333,304.167 263.667,304.167 263,301.5C 262.333,304.167 261.667,304.167 261,301.5C 260.333,304.167 259.667,304.167 259,301.5C 258.333,304.167 257.667,304.167 257,301.5C 256.333,304.167 255.667,304.167 255,301.5C 254.333,304.167 253.667,304.167 253,301.5C 252.333,304.167 251.667,304.167 251,301.5C 250.333,304.167 249.667,304.167 249,301.5C 248.333,304.167 247.667,304.167 247,301.5C 246.333,304.167 245.667,304.167 245,301.5C 244.333,304.167 243.667,304.167 243,301.5C 242.333,304.167 241.667,304.167 241,301.5C 240.333,304.167 239.667,304.167 239,301.5C 238.333,304.167 237.667,304.167 237,301.5C 236.333,304.167 235.667,304.167 235,301.5C 234.333,304.167 233.667,304.167 233,301.5C 232,304.167 231,304.167 230,301.5C 229.333,304.167 228.667,304.167 228,301.5C 227.333,304.167 226.667,304.167 226,301.5C 225.333,304.167 224.667,304.167 224,301.5C 223.333,304.167 222.667,304.167 222,301.5C 221.195,303.901 220.362,303.734 219.5,301C 220.823,300.184 221.489,299.017 221.5,297.5C 221.5,296.833 221.5,296.167 221.5,295.5C 228.045,285.274 227.878,274.941 221,264.5C 219.961,263.29 218.794,262.29 217.5,261.5C 217.5,260.833 217.167,260.5 216.5,260.5C 213.738,258.275 210.738,256.275 207.5,254.5C 205.998,258.374 205.331,258.041 205.5,253.5C 203.5,253.5 201.5,253.5 199.5,253.5C 199.03,252.307 198.03,251.64 196.5,251.5C 193.86,252.095 191.193,252.428 188.5,252.5C 188.5,251.167 188.5,249.833 188.5,248.5C 234.167,248.5 279.833,248.5 325.5,248.5C 325.5,238.833 325.5,229.167 325.5,219.5C 325.5,206.167 325.5,192.833 325.5,179.5C 325.802,164.119 325.469,148.785 324.5,133.5 Z"/></g>
<g><path style="opacity:0.475" fill="#1b3b5e" d="M 188.5,268.5 C 187.064,269.429 185.731,270.595 184.5,272C 181.979,272.8 180.312,272.633 179.5,271.5C 182.366,270.241 185.366,269.241 188.5,268.5 Z"/></g>
<g><path style="opacity:0.004" fill="#000000" d="M -0.5,272.5 C 0.833333,273.167 0.833333,273.167 -0.5,272.5 Z"/></g>
<g><path style="opacity:0.004" fill="#000000" d="M 214.5,272.5 C 215.833,273.167 215.833,273.167 214.5,272.5 Z"/></g>
<g><path style="opacity:0.004" fill="#000000" d="M 218.5,273.5 C 219.833,274.167 219.833,274.167 218.5,273.5 Z"/></g>
<g><path style="opacity:0.004" fill="#000000" d="M 218.5,274.5 C 217.833,275.167 217.833,275.167 218.5,274.5 Z"/></g>
<g><path style="opacity:1" fill="#2285dc" d="M 213.5,275.5 C 215.756,288.436 210.756,295.77 198.5,297.5C 197.202,296.884 196.202,296.884 195.5,297.5C 193.228,296.059 190.895,295.726 188.5,296.5C 187.638,295.234 186.971,293.901 186.5,292.5C 183.124,288.533 179.624,288.533 176,292.5C 174.575,299.385 174.075,306.385 174.5,313.5C 143.833,313.5 113.167,313.5 82.5,313.5C 70.2793,307.291 58.2793,300.624 46.5,293.5C 43.785,291.452 41.4517,289.118 39.5,286.5C 38.962,284.883 38.6287,283.216 38.5,281.5C 96.5,281.5 154.5,281.5 212.5,281.5C 212.205,279.265 212.539,277.265 213.5,275.5 Z"/></g>
<g><path style="opacity:0.02" fill="#000000" d="M -0.5,291.5 C 0.833333,293.167 0.833333,294.833 -0.5,296.5C -0.5,294.833 -0.5,293.167 -0.5,291.5 Z"/></g>
<g><path style="opacity:0.063" fill="#000000" d="M 221.5,295.5 C 221.5,296.167 221.5,296.833 221.5,297.5C 220.833,297.833 220.167,298.167 219.5,298.5C 218.782,296.863 218.616,295.197 219,293.5C 220.813,292.391 221.646,293.058 221.5,295.5 Z"/></g>
<g><path style="opacity:0.008" fill="#000000" d="M 212.5,294.5 C 213.525,294.897 213.692,295.563 213,296.5C 212.536,295.906 212.369,295.239 212.5,294.5 Z"/></g>
<g><path style="opacity:0.058" fill="#020509" d="M 198.5,297.5 C 197.089,301.297 196.089,301.297 195.5,297.5C 196.202,296.884 197.202,296.884 198.5,297.5 Z"/></g>
<g><path style="opacity:0.004" fill="#000000" d="M 185.5,299.5 C 186.833,300.167 186.833,300.167 185.5,299.5 Z"/></g>
<g><path style="opacity:0.013" fill="#000000" d="M 211.5,299.5 C 212.043,299.56 212.376,299.893 212.5,300.5C 211.24,301.382 210.074,302.382 209,303.5C 208.517,302.552 208.351,301.552 208.5,300.5C 209.791,300.737 210.791,300.404 211.5,299.5 Z"/></g>
<g><path style="opacity:0.01" fill="#000000" d="M 185.5,301.5 C 186.649,301.791 187.316,302.624 187.5,304C 187.333,304.833 187.167,305.667 187,306.5C 186.392,304.846 185.892,303.179 185.5,301.5 Z"/></g>
<g><path style="opacity:0.96" fill="#166187" d="M 194.5,308.5 C 192.735,309.461 190.735,309.795 188.5,309.5C 188.5,326.5 188.5,343.5 188.5,360.5C 187.683,358.169 187.016,355.669 186.5,353C 187.104,340.698 187.104,328.531 186.5,316.5C 187.451,315.081 187.784,313.415 187.5,311.5C 187.5,310.5 187.5,309.5 187.5,308.5C 189.833,308.5 192.167,308.5 194.5,308.5 Z"/></g>
<g><path style="opacity:0.072" fill="#000202" d="M 187.5,311.5 C 187.784,313.415 187.451,315.081 186.5,316.5C 186.67,315.178 186.337,314.011 185.5,313C 182.909,312.258 180.576,311.758 178.5,311.5C 181.537,310.259 184.537,310.259 187.5,311.5 Z"/></g>
<g><path style="opacity:1" fill="#167fd7" d="M 221.5,297.5 C 221.489,299.017 220.823,300.184 219.5,301C 220.362,303.734 221.195,303.901 222,301.5C 222.667,304.167 223.333,304.167 224,301.5C 224.667,304.167 225.333,304.167 226,301.5C 226.667,304.167 227.333,304.167 228,301.5C 228.667,304.167 229.333,304.167 230,301.5C 231,304.167 232,304.167 233,301.5C 233.667,304.167 234.333,304.167 235,301.5C 235.667,304.167 236.333,304.167 237,301.5C 237.667,304.167 238.333,304.167 239,301.5C 239.667,304.167 240.333,304.167 241,301.5C 241.667,304.167 242.333,304.167 243,301.5C 243.667,304.167 244.333,304.167 245,301.5C 245.667,304.167 246.333,304.167 247,301.5C 247.667,304.167 248.333,304.167 249,301.5C 249.667,304.167 250.333,304.167 251,301.5C 251.667,304.167 252.333,304.167 253,301.5C 253.667,304.167 254.333,304.167 255,301.5C 255.667,304.167 256.333,304.167 257,301.5C 257.667,304.167 258.333,304.167 259,301.5C 259.667,304.167 260.333,304.167 261,301.5C 261.667,304.167 262.333,304.167 263,301.5C 263.667,304.167 264.333,304.167 265,301.5C 265.667,304.167 266.333,304.167 267,301.5C 267.667,304.167 268.333,304.167 269,301.5C 269.667,304.167 270.333,304.167 271,301.5C 271.667,304.167 272.333,304.167 273,301.5C 273.667,304.167 274.333,304.167 275,301.5C 275.667,304.167 276.333,304.167 277,301.5C 277.667,304.167 278.333,304.167 279,301.5C 279.667,304.167 280.333,304.167 281,301.5C 281.667,304.167 282.333,304.167 283,301.5C 283.667,304.167 284.333,304.167 285,301.5C 285.667,304.167 286.333,304.167 287,301.5C 287.667,304.167 288.333,304.167 289,301.5C 289.667,304.167 290.333,304.167 291,301.5C 291.667,304.167 292.333,304.167 293,301.5C 293.667,304.167 294.333,304.167 295,301.5C 295.667,304.167 296.333,304.167 297,301.5C 297.417,302.756 298.25,303.423 299.5,303.5C 277.707,316.903 255.374,329.569 232.5,341.5C 229.804,343.509 227.137,345.509 224.5,347.5C 218.826,350.001 213.492,353.001 208.5,356.5C 203.485,359.283 198.485,361.95 193.5,364.5C 192.07,363.463 190.403,362.796 188.5,362.5C 188.5,361.833 188.5,361.167 188.5,360.5C 188.5,343.5 188.5,326.5 188.5,309.5C 190.735,309.795 192.735,309.461 194.5,308.5C 204.625,309.898 212.958,306.565 219.5,298.5C 220.167,298.167 220.833,297.833 221.5,297.5 Z"/></g>
<g><path style="opacity:0.004" fill="#000000" d="M 38.5,317.5 C 39.8333,318.167 39.8333,318.167 38.5,317.5 Z"/></g>
<g><path style="opacity:0.545" fill="#134472" d="M 186.5,292.5 C 184.742,292.123 183.075,291.456 181.5,290.5C 180.086,291.624 178.586,292.624 177,293.5C 176.689,315.822 175.856,337.822 174.5,359.5C 174.5,344.167 174.5,328.833 174.5,313.5C 174.075,306.385 174.575,299.385 176,292.5C 179.624,288.533 183.124,288.533 186.5,292.5 Z"/></g>
<g><path style="opacity:0.004" fill="#000000" d="M 184.5,321.5 C 185.833,322.167 185.833,322.167 184.5,321.5 Z"/></g>
<g><path style="opacity:1" fill="#117dd5" d="M 82.5,313.5 C 113.167,313.5 143.833,313.5 174.5,313.5C 174.5,328.833 174.5,344.167 174.5,359.5C 173.599,361.389 172.099,362.722 170,363.5C 155.975,356.571 142.475,348.738 129.5,340C 117.092,332.233 104.259,325.4 91,319.5C 88.0049,317.598 85.1716,315.598 82.5,313.5 Z"/></g>
<g><path style="opacity:0.016" fill="#000000" d="M 180.5,334.5 C 181.289,334.783 181.956,335.283 182.5,336C 181.184,336.528 180.517,336.028 180.5,334.5 Z"/></g>
<g><path style="opacity:0.077" fill="#020307" d="M 224.5,347.5 C 224.67,348.822 224.337,349.989 223.5,351C 218.47,352.952 213.47,354.786 208.5,356.5C 213.492,353.001 218.826,350.001 224.5,347.5 Z"/></g>
<g><path style="opacity:0.004" fill="#000000" d="M 180.5,349.5 C 181.833,350.167 181.833,350.167 180.5,349.5 Z"/></g>
<g><path style="opacity:0.004" fill="#000000" d="M 220.5,355.5 C 221.833,356.167 221.833,356.167 220.5,355.5 Z"/></g>
<g><path style="opacity:0.004" fill="#000000" d="M 216.5,356.5 C 217.833,357.167 217.833,357.167 216.5,356.5 Z"/></g>
<g><path style="opacity:0.012" fill="#000000" d="M 209.5,359.5 C 210.873,359.343 212.207,359.51 213.5,360C 211.523,361.541 209.523,362.041 207.5,361.5C 208.243,360.818 208.909,360.151 209.5,359.5 Z"/></g>
<g><path style="opacity:0.004" fill="#000000" d="M 218.5,361.5 C 219.833,362.167 219.833,362.167 218.5,361.5 Z"/></g>
<g><path style="opacity:0.056" fill="#000000" d="M 188.5,362.5 C 190.403,362.796 192.07,363.463 193.5,364.5C 190.672,366.401 189.006,365.734 188.5,362.5 Z"/></g>
<g><path style="opacity:0.004" fill="#000000" d="M 181.5,365.5 C 182.833,366.167 182.833,366.167 181.5,365.5 Z"/></g>
<g><path style="opacity:0.004" fill="#000000" d="M 156.5,367.5 C 157.833,368.167 157.833,368.167 156.5,367.5 Z"/></g>
<g><path style="opacity:0.004" fill="#000000" d="M 190.5,369.5 C 191.527,368.152 192.86,367.652 194.5,368C 193.437,369.188 192.103,369.688 190.5,369.5 Z"/></g>
<g><path style="opacity:0.004" fill="#000000" d="M 159.5,368.5 C 160.833,369.167 160.833,369.167 159.5,368.5 Z"/></g>
<g><path style="opacity:0.006" fill="#000000" d="M 190.5,369.5 C 190.103,370.525 189.437,370.692 188.5,370C 189.094,369.536 189.761,369.369 190.5,369.5 Z"/></g>
<g><path style="opacity:0.004" fill="#000000" d="M 162.5,372.5 C 161.833,371.167 161.833,371.167 162.5,372.5 Z"/></g>
<g><path style="opacity:0.004" fill="#000000" d="M 162.5,372.5 C 163.833,373.167 163.833,373.167 162.5,372.5 Z"/></g>
<g><path style="opacity:0.004" fill="#000000" d="M 171.5,375.5 C 172.833,376.167 172.833,376.167 171.5,375.5 Z"/></g>
</svg>
