<?xml version="1.0" encoding="UTF-8"?>
<!DOCTYPE svg PUBLIC "-//W3C//DTD SVG 1.1//EN" "http://www.w3.org/Graphics/SVG/1.1/DTD/svg11.dtd">
<svg xmlns="http://www.w3.org/2000/svg" version="1.1" width="354px" height="354px" style="shape-rendering:geometricPrecision; text-rendering:geometricPrecision; image-rendering:optimizeQuality; fill-rule:evenodd; clip-rule:evenodd" xmlns:xlink="http://www.w3.org/1999/xlink">
<g><path style="opacity:0.066" fill="#000000" d="M 73.5,30.5 C 75.3901,31.1799 77.3901,31.3466 79.5,31C 77.9194,31.7065 76.4194,32.5399 75,33.5C 73.9614,32.7562 73.4614,31.7562 73.5,30.5 Z"/></g>
<g><path style="opacity:0.019" fill="#000000" d="M 235.5,55.5 C 234.833,55.5 234.167,55.5 233.5,55.5C 233.737,51.7113 234.404,51.7113 235.5,55.5 Z"/></g>
<g><path style="opacity:0.016" fill="#000000" d="M 324.5,52.5 C 326.973,52.9473 327.14,53.9473 325,55.5C 324.517,54.552 324.351,53.552 324.5,52.5 Z"/></g>
<g><path style="opacity:0.475" fill="#080715" d="M 252.5,110.5 C 253.791,110.263 254.791,110.596 255.5,111.5C 254.292,112.782 252.958,112.782 251.5,111.5C 251.624,110.893 251.957,110.56 252.5,110.5 Z"/></g>
<g><path style="opacity:0.031" fill="#000000" d="M 353.5,141.5 C 353.5,142.167 353.5,142.833 353.5,143.5C 352.167,142.833 352.167,142.167 353.5,141.5 Z"/></g>
<g><path style="opacity:0.004" fill="#000000" d="M -0.5,147.5 C 0.833333,148.167 0.833333,148.833 -0.5,149.5C -0.5,148.833 -0.5,148.167 -0.5,147.5 Z"/></g>
<g><path style="opacity:0.065" fill="#000000" d="M 353.5,165.5 C 353.5,167.5 353.5,169.5 353.5,171.5C 351.269,169.358 351.269,167.358 353.5,165.5 Z"/></g>
<g><path style="opacity:0.196" fill="#000000" d="M 353.5,183.5 C 353.5,186.5 353.5,189.5 353.5,192.5C 352.163,191.685 351.163,190.518 350.5,189C 351.609,187.124 352.609,185.291 353.5,183.5 Z"/></g>
<g><path style="opacity:0.024" fill="#000000" d="M -0.5,188.5 C 2.16667,189.5 2.16667,190.5 -0.5,191.5C -0.5,190.5 -0.5,189.5 -0.5,188.5 Z"/></g>
<g><path style="opacity:0.271" fill="#3b3b96" d="M 233.5,55.5 C 234.167,55.5 234.833,55.5 235.5,55.5C 244.409,53.3661 249.909,56.6994 252,65.5C 251.616,80.3485 251.783,95.3485 252.5,110.5C 251.957,110.56 251.624,110.893 251.5,111.5C 252.958,112.782 254.292,112.782 255.5,111.5C 265.839,111.334 276.172,111.5 286.5,112C 290.557,113.724 294.057,116.224 297,119.5C 297.667,177.167 297.667,234.833 297,292.5C 295.542,294.96 293.709,297.127 291.5,299C 214.167,299.667 136.833,299.667 59.5,299C 57.6667,297.167 55.8333,295.333 54,293.5C 53.3333,235.5 53.3333,177.5 54,119.5C 56.9432,116.224 60.4432,113.724 64.5,112C 76.1619,111.5 87.8286,111.333 99.5,111.5C 99.6904,97.6664 99.3571,83.9997 98.5,70.5C 98.8467,64.6415 101.18,59.8081 105.5,56C 148.165,55.5 190.832,55.3333 233.5,55.5 Z M 115.5,138.5 C 117.944,138.072 119.611,137.406 120.5,136.5C 121.801,135.36 122.968,134.027 124,132.5C 124.5,115.503 124.667,98.5033 124.5,81.5C 158.5,81.5 192.5,81.5 226.5,81.5C 226.333,98.5033 226.5,115.503 227,132.5C 229.026,135.759 231.86,137.925 235.5,139C 247.495,139.5 259.495,139.667 271.5,139.5C 271.5,184.167 271.5,228.833 271.5,273.5C 207.359,273.37 143.359,273.37 79.5,273.5C 79.5,228.833 79.5,184.167 79.5,139.5C 91.6783,139.828 103.678,139.495 115.5,138.5 Z"/></g>
<g><path style="opacity:1" fill="#504fcc" d="M 102.5,64.5 C 102.667,81.17 102.5,97.8367 102,114.5C 101.329,115.252 100.496,115.586 99.5,115.5C 99.9867,114.527 100.487,113.527 101,112.5C 101.169,96.3281 101.669,80.3281 102.5,64.5 Z"/></g>
<g><path style="opacity:1" fill="#6462fe" d="M 99.5,115.5 C 100.496,115.586 101.329,115.252 102,114.5C 102.5,97.8367 102.667,81.17 102.5,64.5C 103.233,61.2629 105.233,59.0962 108.5,58C 153.167,57.3333 197.833,57.3333 242.5,58C 245.674,59.174 247.841,61.3407 249,64.5C 249.333,81.1667 249.667,97.8333 250,114.5C 263.092,115.324 276.258,115.824 289.5,116C 292,117.167 293.833,119 295,121.5C 295.667,177.833 295.667,234.167 295,290.5C 293.5,293.333 291.333,295.5 288.5,297C 212.418,297.994 136.418,297.66 60.5,296C 58.6411,294.442 57.1411,292.609 56,290.5C 55.1667,234.164 55.3334,177.83 56.5,121.5C 57.2446,119.253 58.578,117.42 60.5,116C 73.4957,115.5 86.4957,115.333 99.5,115.5 Z M 115.5,138.5 C 117.944,138.072 119.611,137.406 120.5,136.5C 121.801,135.36 122.968,134.027 124,132.5C 124.5,115.503 124.667,98.5033 124.5,81.5C 158.5,81.5 192.5,81.5 226.5,81.5C 226.333,98.5033 226.5,115.503 227,132.5C 229.026,135.759 231.86,137.925 235.5,139C 247.495,139.5 259.495,139.667 271.5,139.5C 271.5,184.167 271.5,228.833 271.5,273.5C 207.359,273.37 143.359,273.37 79.5,273.5C 79.5,228.833 79.5,184.167 79.5,139.5C 91.6783,139.828 103.678,139.495 115.5,138.5 Z"/></g>
<g><path style="opacity:1" fill="#4948b9" d="M 273.5,138.5 C 274.499,183.664 274.832,228.997 274.5,274.5C 274.389,275.117 274.056,275.617 273.5,276C 240.833,276.167 208.167,276.333 175.5,276.5C 142.493,276.5 109.826,275.833 77.5,274.5C 142.43,275.663 207.43,275.829 272.5,275C 273.497,229.572 273.83,184.072 273.5,138.5 Z"/></g>
<g><path style="opacity:0.941" fill="#353486" d="M 228.5,127.5 C 228.735,131.57 230.735,134.403 234.5,136C 247.162,136.5 259.829,136.667 272.5,136.5C 272.833,137.167 273.167,137.833 273.5,138.5C 273.83,184.072 273.497,229.572 272.5,275C 207.43,275.829 142.43,275.663 77.5,274.5C 77.3333,229.165 77.5,183.832 78,138.5C 78.7172,137.956 79.2172,137.289 79.5,136.5C 91.8799,135.854 103.88,136.521 115.5,138.5C 103.678,139.495 91.6783,139.828 79.5,139.5C 79.5,184.167 79.5,228.833 79.5,273.5C 143.359,273.37 207.359,273.37 271.5,273.5C 271.5,228.833 271.5,184.167 271.5,139.5C 259.495,139.667 247.495,139.5 235.5,139C 231.86,137.925 229.026,135.759 227,132.5C 226.5,115.503 226.333,98.5033 226.5,81.5C 192.5,81.5 158.5,81.5 124.5,81.5C 124.667,98.5033 124.5,115.503 124,132.5C 122.968,134.027 121.801,135.36 120.5,136.5C 118.204,136.196 117.871,135.196 119.5,133.5C 121.025,131.784 122.025,129.784 122.5,127.5C 123.496,111.675 123.83,95.6754 123.5,79.5C 158.167,79.5 192.833,79.5 227.5,79.5C 227.17,95.6754 227.504,111.675 228.5,127.5 Z M 115.5,138.5 C 117.944,138.072 119.611,137.406 120.5,136.5C 121.801,135.36 122.968,134.027 124,132.5C 124.5,115.503 124.667,98.5033 124.5,81.5C 158.5,81.5 192.5,81.5 226.5,81.5C 226.333,98.5033 226.5,115.503 227,132.5C 229.026,135.759 231.86,137.925 235.5,139C 247.495,139.5 259.495,139.667 271.5,139.5C 271.5,184.167 271.5,228.833 271.5,273.5C 207.359,273.37 143.359,273.37 79.5,273.5C 79.5,228.833 79.5,184.167 79.5,139.5C 91.6783,139.828 103.678,139.495 115.5,138.5 Z"/></g>
<g><path style="opacity:1" fill="#5957e1" d="M 272.5,136.5 C 273.5,136.5 274.5,136.5 275.5,136.5C 275.832,182.67 275.499,228.67 274.5,274.5C 274.832,228.997 274.499,183.664 273.5,138.5C 273.167,137.833 272.833,137.167 272.5,136.5 Z"/></g>
<g><path style="opacity:1" fill="#4948b9" d="M 79.5,136.5 C 79.2172,137.289 78.7172,137.956 78,138.5C 77.5,183.832 77.3333,229.165 77.5,274.5C 77.1667,274.5 76.8333,274.5 76.5,274.5C 76.3333,228.832 76.5,183.165 77,137.5C 77.6708,136.748 78.5041,136.414 79.5,136.5 Z"/></g>
<g><path style="opacity:1" fill="#5755dc" d="M 119.5,133.5 C 117.871,135.196 118.204,136.196 120.5,136.5C 119.611,137.406 117.944,138.072 115.5,138.5C 103.88,136.521 91.8799,135.854 79.5,136.5C 78.5041,136.414 77.6708,136.748 77,137.5C 76.5,183.165 76.3333,228.832 76.5,274.5C 75.3351,228.668 75.1685,182.668 76,136.5C 90.5571,136.081 105.057,135.081 119.5,133.5 Z"/></g>
<g><path style="opacity:0.524" fill="#3e3c94" d="M 220.5,228.5 C 228.84,228.334 237.173,228.5 245.5,229C 248.04,230.04 249.707,231.874 250.5,234.5C 253.038,242.289 251.038,248.456 244.5,253C 238.917,253.191 233.417,253.691 228,254.5C 216.615,253.063 212.115,246.73 214.5,235.5C 216.189,232.817 218.189,230.484 220.5,228.5 Z"/></g>
<g><path style="opacity:0.527" fill="#3e3b94" d="M 103.5,228.5 C 112.506,228.334 121.506,228.5 130.5,229C 140.007,237.56 139.673,245.56 129.5,253C 120.057,255.781 111.057,254.947 102.5,250.5C 100.086,247.644 99.0857,244.31 99.5,240.5C 99.7904,236.091 101.124,232.091 103.5,228.5 Z"/></g>
<g><path style="opacity:1" fill="#6260f8" d="M 223.5,229.5 C 229.509,229.334 235.509,229.501 241.5,230C 248.694,232.723 251.028,237.723 248.5,245C 246.557,248.614 243.557,250.614 239.5,251C 233.388,251.909 227.388,251.576 221.5,250C 220.333,248.833 219.167,247.667 218,246.5C 217.333,242.5 217.333,238.5 218,234.5C 219.812,232.7 221.645,231.033 223.5,229.5 Z"/></g>
<g><path style="opacity:1" fill="#6260f9" d="M 108.5,229.5 C 116.052,228.873 123.385,229.706 130.5,232C 131.701,232.903 132.535,234.069 133,235.5C 135.699,243.462 133.199,248.629 125.5,251C 119.056,251.915 112.723,251.581 106.5,250C 105.333,248.833 104.167,247.667 103,246.5C 102.333,242.5 102.333,238.5 103,234.5C 104.812,232.7 106.645,231.033 108.5,229.5 Z"/></g>
<g><path style="opacity:0.535" fill="#3f3c95" d="M 162.5,228.5 C 171.173,228.334 179.84,228.5 188.5,229C 190.333,230.167 191.833,231.667 193,233.5C 193.667,238.833 193.667,244.167 193,249.5C 192.667,249.167 192.333,248.833 192,248.5C 191.209,250.604 189.709,251.937 187.5,252.5C 182.147,253.211 176.814,253.878 171.5,254.5C 158.869,252.997 154.369,245.997 158,233.5C 159.366,231.638 160.866,229.972 162.5,228.5 Z"/></g>
<g><path style="opacity:1" fill="#6260f8" d="M 166.5,229.5 C 172.176,229.334 177.843,229.501 183.5,230C 191.443,233.558 193.61,239.391 190,247.5C 188.442,249.768 186.276,250.934 183.5,251C 176.724,251.92 170.057,251.586 163.5,250C 156.199,241.969 157.199,235.135 166.5,229.5 Z"/></g>
<g><path style="opacity:0.019" fill="#000000" d="M 187.5,207.5 C 187.833,208.167 188.167,208.833 188.5,209.5C 187.209,209.737 186.209,209.404 185.5,208.5C 186.167,208.167 186.833,207.833 187.5,207.5 Z"/></g>
<g><path style="opacity:0.726" fill="#3b3992" d="M 187.5,207.5 C 186.833,207.833 186.167,208.167 185.5,208.5C 179.158,208.666 172.825,208.5 166.5,208C 160.027,206.284 157.027,201.784 157.5,194.5C 157.645,190.963 158.478,187.629 160,184.5C 160.333,184.833 160.667,185.167 161,185.5C 164.834,181.176 169.667,179.51 175.5,180.5C 189.856,180.358 195.69,187.358 193,201.5C 191.301,203.696 189.467,205.696 187.5,207.5 Z"/></g>
<g><path style="opacity:0.747" fill="#3f3c94" d="M 109.5,180.5 C 115.877,180.584 122.044,180.584 128,180.5C 130.016,182.745 132.349,184.745 135,186.5C 139.666,201.523 133.999,208.856 118,208.5C 103.255,209.718 97.2554,203.051 100,188.5C 102.643,185.082 105.81,182.415 109.5,180.5 Z"/></g>
<g><path style="opacity:0.573" fill="#403d98" d="M 225.5,180.5 C 230.844,180.334 236.177,180.501 241.5,181C 252.107,186.212 254.441,194.045 248.5,204.5C 246.547,205.761 244.547,206.927 242.5,208C 236.167,208.667 229.833,208.667 223.5,208C 214.065,203.238 211.565,196.071 216,186.5C 219.104,184.213 222.271,182.213 225.5,180.5 Z"/></g>
<g><path style="opacity:1" fill="#6361fa" d="M 221.5,184.5 C 230.046,183.867 238.379,184.701 246.5,187C 247,187.5 247.5,188 248,188.5C 249.338,194.341 248.171,199.508 244.5,204C 237.247,205.557 229.914,205.89 222.5,205C 218.374,202.698 216.707,199.198 217.5,194.5C 217.667,192.5 217.833,190.5 218,188.5C 219.376,187.295 220.542,185.962 221.5,184.5 Z"/></g>
<g><path style="opacity:1" fill="#6260f9" d="M 164.5,184.5 C 171.841,184.334 179.174,184.5 186.5,185C 194.508,191.998 194.174,198.665 185.5,205C 178.833,205.667 172.167,205.667 165.5,205C 156.509,198.55 156.176,191.717 164.5,184.5 Z"/></g>
<g><path style="opacity:1" fill="#6260f9" d="M 107.5,184.5 C 115.715,183.877 123.715,184.71 131.5,187C 134.829,191.137 135.329,195.637 133,200.5C 131.773,202.726 129.939,204.226 127.5,205C 120.833,205.667 114.167,205.667 107.5,205C 99.5072,197.996 99.5072,191.163 107.5,184.5 Z"/></g>
<g><path style="opacity:0.014" fill="#000000" d="M 208.5,151.5 C 207.427,150.749 207.26,149.749 208,148.5C 209.728,149.352 209.895,150.352 208.5,151.5 Z"/></g>
<g><path style="opacity:0.584" fill="#3f3c96" d="M 174.5,100.5 C 185.319,101.652 190.319,107.652 189.5,118.5C 199.405,117.286 205.071,121.619 206.5,131.5C 204.623,140.926 198.956,145.259 189.5,144.5C 189.387,158.733 182.387,164.066 168.5,160.5C 166.807,159.772 165.307,158.772 164,157.5C 162.106,153.432 161.273,149.098 161.5,144.5C 151.508,145.843 145.841,141.51 144.5,131.5C 145.28,127.72 146.613,124.22 148.5,121C 152.51,118.827 156.843,117.994 161.5,118.5C 160.526,108.496 164.859,102.496 174.5,100.5 Z"/></g>
<g><path style="opacity:1" fill="#6361fb" d="M 169.5,104.5 C 182.279,102.279 187.946,107.613 186.5,120.5C 193.178,119.536 198.678,121.536 203,126.5C 203.596,138.394 197.762,143.728 185.5,142.5C 185.924,147.419 185.09,152.086 183,156.5C 176.77,160.93 171.103,160.263 166,154.5C 165.501,150.514 165.334,146.514 165.5,142.5C 152.678,144.504 146.844,139.171 148,126.5C 152.583,121.263 158.417,118.929 165.5,119.5C 164.456,113.685 165.789,108.685 169.5,104.5 Z"/></g>
<g><path style="opacity:1" fill="#5452d4" d="M 228.5,127.5 C 227.504,111.675 227.17,95.6754 227.5,79.5C 192.833,79.5 158.167,79.5 123.5,79.5C 123.83,95.6754 123.496,111.675 122.5,127.5C 122.175,110.923 122.508,94.4226 123.5,78C 158.167,77.3333 192.833,77.3333 227.5,78C 228.492,94.4226 228.825,110.923 228.5,127.5 Z"/></g>
<g><path style="opacity:0.331" fill="#000000" d="M 304.5,353.5 C 301.5,353.5 298.5,353.5 295.5,353.5C 298.213,350.263 301.213,350.263 304.5,353.5 Z"/></g>
<g><path style="opacity:0.108" fill="#000000" d="M 93.5,353.5 C 92.1667,353.5 90.8333,353.5 89.5,353.5C 90.6344,351.219 91.9678,351.219 93.5,353.5 Z"/></g>
<g><path style="opacity:0.179" fill="#000000" d="M 116.5,353.5 C 114.833,353.5 113.167,353.5 111.5,353.5C 113.167,350.833 114.833,350.833 116.5,353.5 Z"/></g>
<g><path style="opacity:0.232" fill="#000000" d="M 142.5,353.5 C 139.833,353.5 137.167,353.5 134.5,353.5C 137.119,351.028 139.786,351.028 142.5,353.5 Z"/></g>
<g><path style="opacity:0.365" fill="#000000" d="M 165.5,353.5 C 161.833,353.5 158.167,353.5 154.5,353.5C 158.167,350.833 161.833,350.833 165.5,353.5 Z"/></g>
<g><path style="opacity:0.201" fill="#000000" d="M 183.5,353.5 C 181.5,353.5 179.5,353.5 177.5,353.5C 179.642,351.269 181.642,351.269 183.5,353.5 Z"/></g>
</svg>
