<svg xmlns="http://www.w3.org/2000/svg" xmlns:xlink="http://www.w3.org/1999/xlink" width="500" zoomAndPan="magnify" viewBox="0 0 375 374.999991" height="500" preserveAspectRatio="xMidYMid meet" version="1.0"><defs><clipPath id="f1d5cd46ce"><path d="M 5.808594 174 L 369.558594 174 L 369.558594 274 L 5.808594 274 Z M 5.808594 174 " clip-rule="nonzero"/></clipPath></defs><path fill="#3da3fd" d="M 185.925781 156.4375 L 186.839844 132.890625 C 186.839844 132.527344 187.132812 132.238281 187.496094 132.238281 C 187.855469 132.238281 188.148438 132.527344 188.148438 132.890625 L 189.066406 156.4375 C 204.464844 157.308594 215.617188 170.886719 216.425781 185.773438 C 233.660156 184.394531 253.445312 182.757812 272.914062 181.125 C 271.449219 161.375 263.167969 142.035156 248.066406 126.929688 C 214.613281 93.476562 160.375 93.476562 126.925781 126.929688 C 111.820312 142.035156 103.539062 161.375 102.074219 181.125 C 121.542969 182.757812 141.328125 184.394531 158.5625 185.773438 C 159.371094 170.886719 170.523438 157.308594 185.925781 156.4375 " fill-opacity="1" fill-rule="nonzero"/><path fill="#3da3fd" d="M 200.398438 168.121094 C 196.394531 165.820312 191.800781 164.917969 187.4375 164.9375 C 183.074219 164.964844 178.484375 165.90625 174.503906 168.242188 C 170.546875 170.535156 167.292969 174.316406 166.515625 178.695312 C 170.460938 176.71875 173.804688 175.640625 177.210938 175.078125 C 180.585938 174.511719 183.960938 174.328125 187.476562 174.3125 C 190.988281 174.304688 194.363281 174.46875 197.742188 175 C 201.144531 175.539062 204.5 176.582031 208.46875 178.511719 C 207.667969 174.136719 204.378906 170.378906 200.398438 168.121094 " fill-opacity="1" fill-rule="nonzero"/><g clip-path="url(#f1d5cd46ce)"><path fill="#3da3fd" d="M 369.082031 174.589844 L 268.378906 188.84375 C 250.085938 191.425781 231.539062 194.035156 214.867188 196.371094 C 210.441406 208.691406 197.734375 218.605469 187.496094 218.605469 C 177.257812 218.605469 164.550781 208.691406 160.121094 196.371094 C 143.605469 194.058594 125.25 191.472656 107.125 188.914062 L 5.910156 174.589844 L 102.511719 198.238281 C 104.800781 216.457031 112.933594 234.082031 126.925781 248.070312 C 160.375 281.523438 214.613281 281.523438 248.066406 248.070312 C 262.054688 234.082031 270.1875 216.457031 272.476562 198.238281 L 369.082031 174.589844 " fill-opacity="1" fill-rule="nonzero"/></g></svg>