<svg xmlns="http://www.w3.org/2000/svg" xmlns:xlink="http://www.w3.org/1999/xlink" width="500" zoomAndPan="magnify" viewBox="0 0 375 374.999991" height="500" preserveAspectRatio="xMidYMid meet" version="1.0"><defs><g/><clipPath id="994be5fa6f"><path d="M 5.808594 128 L 369.558594 128 L 369.558594 227 L 5.808594 227 Z M 5.808594 128 " clip-rule="nonzero"/></clipPath></defs><path fill="#3da3fd" d="M 185.925781 110.09375 L 186.839844 86.550781 C 186.839844 86.1875 187.132812 85.894531 187.496094 85.894531 C 187.855469 85.894531 188.148438 86.1875 188.148438 86.550781 L 189.066406 110.09375 C 204.464844 110.964844 215.617188 124.546875 216.425781 139.429688 C 233.660156 138.050781 253.445312 136.414062 272.914062 134.78125 C 271.449219 115.03125 263.167969 95.691406 248.066406 80.585938 C 214.613281 47.136719 160.375 47.136719 126.925781 80.585938 C 111.820312 95.691406 103.539062 115.03125 102.074219 134.78125 C 121.542969 136.414062 141.328125 138.050781 158.5625 139.429688 C 159.371094 124.546875 170.523438 110.964844 185.925781 110.09375 " fill-opacity="1" fill-rule="nonzero"/><path fill="#3da3fd" d="M 200.398438 121.78125 C 196.394531 119.476562 191.800781 118.574219 187.4375 118.59375 C 183.074219 118.625 178.484375 119.5625 174.503906 121.902344 C 170.546875 124.195312 167.292969 127.972656 166.515625 132.351562 C 170.460938 130.378906 173.804688 129.300781 177.210938 128.734375 C 180.585938 128.167969 183.960938 127.984375 187.476562 127.972656 C 190.988281 127.964844 194.363281 128.125 197.742188 128.660156 C 201.144531 129.199219 204.5 130.238281 208.46875 132.171875 C 207.667969 127.796875 204.378906 124.035156 200.398438 121.78125 " fill-opacity="1" fill-rule="nonzero"/><g clip-path="url(#994be5fa6f)"><path fill="#3da3fd" d="M 369.082031 128.246094 L 268.378906 142.5 C 250.085938 145.082031 231.539062 147.691406 214.867188 150.027344 C 210.441406 162.347656 197.734375 172.261719 187.496094 172.261719 C 177.257812 172.261719 164.550781 162.347656 160.121094 150.027344 C 143.605469 147.714844 125.25 145.128906 107.125 142.574219 L 5.910156 128.246094 L 102.511719 151.894531 C 104.800781 170.113281 112.933594 187.738281 126.925781 201.726562 C 160.375 235.179688 214.613281 235.179688 248.066406 201.726562 C 262.054688 187.738281 270.1875 170.113281 272.476562 151.898438 L 369.082031 128.246094 " fill-opacity="1" fill-rule="nonzero"/></g><g fill="#272727" fill-opacity="1"><g transform="translate(108.368019, 279.915222)"><g><path d="M 1.0625 0 L 5.625 -37.171875 L 13.984375 -37.171875 L 18.546875 0 L 13.421875 0 L 12.546875 -9.296875 L 7.109375 -9.296875 L 6.234375 0 Z M 7.578125 -13.703125 L 12.03125 -13.703125 L 11.25 -21.890625 L 10.453125 -32.71875 L 9.15625 -32.71875 L 8.359375 -21.890625 Z M 7.578125 -13.703125 "/></g></g></g><g fill="#272727" fill-opacity="1"><g transform="translate(130.211348, 279.915222)"><g><path d="M 2.140625 0 L 2.140625 -37.171875 L 7.203125 -37.171875 L 7.203125 0 Z M 2.5625 -39.265625 L 2.5625 -42.65625 L 6.78125 -42.65625 L 6.78125 -39.265625 Z M 2.5625 -39.265625 "/></g></g></g><g fill="#272727" fill-opacity="1"><g transform="translate(141.923092, 279.915222)"><g><path d="M 2.140625 0 L 2.140625 -37.171875 L 9.484375 -37.171875 C 12.234375 -37.171875 14.234375 -36.582031 15.484375 -35.40625 C 16.742188 -34.226562 17.421875 -32.304688 17.515625 -29.640625 C 17.578125 -27.941406 17.609375 -26.441406 17.609375 -25.140625 C 17.609375 -23.835938 17.578125 -22.425781 17.515625 -20.90625 C 17.390625 -17.4375 16.242188 -15.207031 14.078125 -14.21875 L 18.125 0 L 12.78125 0 L 9.34375 -13.390625 L 7.203125 -13.390625 L 7.203125 0 Z M 7.203125 -17.84375 L 9.4375 -17.84375 C 11.382812 -17.84375 12.40625 -18.769531 12.5 -20.625 C 12.65625 -23.726562 12.65625 -26.8125 12.5 -29.875 C 12.40625 -31.769531 11.398438 -32.71875 9.484375 -32.71875 L 7.203125 -32.71875 Z M 7.203125 -17.84375 "/></g></g></g><g fill="#272727" fill-opacity="1"><g transform="translate(163.534043, 279.915222)"><g><path d="M 2.140625 0 L 2.140625 -37.171875 L 9.484375 -37.171875 C 12.234375 -37.171875 14.234375 -36.582031 15.484375 -35.40625 C 16.742188 -34.226562 17.421875 -32.304688 17.515625 -29.640625 C 17.578125 -27.941406 17.609375 -26.398438 17.609375 -25.015625 C 17.609375 -23.640625 17.578125 -22.191406 17.515625 -20.671875 C 17.421875 -18.015625 16.742188 -16.097656 15.484375 -14.921875 C 14.234375 -13.742188 12.21875 -13.15625 9.4375 -13.15625 L 7.203125 -13.15625 L 7.203125 0 Z M 7.203125 -17.609375 L 9.4375 -17.609375 C 11.382812 -17.609375 12.40625 -18.554688 12.5 -20.453125 C 12.5625 -21.929688 12.59375 -23.5 12.59375 -25.15625 C 12.59375 -26.820312 12.5625 -28.394531 12.5 -29.875 C 12.40625 -31.769531 11.398438 -32.71875 9.484375 -32.71875 L 7.203125 -32.71875 Z M 7.203125 -17.609375 "/></g></g></g><g fill="#272727" fill-opacity="1"><g transform="translate(184.587286, 279.915222)"><g><path d="M 2.140625 0 L 2.140625 -37.171875 L 7.203125 -37.171875 L 7.203125 -4.46875 L 15.46875 -4.46875 L 15.46875 0 Z M 2.140625 0 "/></g></g></g><g fill="#272727" fill-opacity="1"><g transform="translate(203.502667, 279.915222)"><g><path d="M 1.0625 0 L 5.625 -37.171875 L 13.984375 -37.171875 L 18.546875 0 L 13.421875 0 L 12.546875 -9.296875 L 7.109375 -9.296875 L 6.234375 0 Z M 7.578125 -13.703125 L 12.03125 -13.703125 L 11.25 -21.890625 L 10.453125 -32.71875 L 9.15625 -32.71875 L 8.359375 -21.890625 Z M 7.578125 -13.703125 "/></g></g></g><g fill="#272727" fill-opacity="1"><g transform="translate(225.345995, 279.915222)"><g><path d="M 2.140625 0 L 2.140625 -37.171875 L 9.9375 -37.171875 L 12.359375 -25.375 L 15.375 -4.46875 L 16.453125 -4.46875 L 15.5625 -22.671875 L 15.1875 -37.171875 L 20.078125 -37.171875 L 20.078125 0 L 11.9375 0 L 9.4375 -12.734375 L 6.96875 -32.765625 L 5.8125 -32.765625 L 6.59375 -14.171875 L 7.015625 0 Z M 2.140625 0 "/></g></g></g><g fill="#272727" fill-opacity="1"><g transform="translate(249.931361, 279.915222)"><g><path d="M 2.140625 0 L 2.140625 -37.171875 L 15.421875 -37.171875 L 15.421875 -32.71875 L 7.203125 -32.71875 L 7.203125 -21.046875 L 14.96875 -21.046875 L 14.96875 -16.59375 L 7.203125 -16.59375 L 7.203125 -4.46875 L 15.421875 -4.46875 L 15.421875 0 Z M 2.140625 0 "/></g></g></g><g fill="#022179" fill-opacity="1"><g transform="translate(73.615781, 311.539403)"><g><path d="M 2.953125 -12.546875 L 4.640625 -12.546875 L 7.328125 0 L 5.671875 0 L 5.09375 -3.15625 L 2.546875 -3.15625 L 1.9375 0 L 0.296875 0 Z M 4.859375 -4.40625 L 3.8125 -10.0625 L 2.765625 -4.40625 Z M 4.859375 -4.40625 "/></g></g></g><g fill="#022179" fill-opacity="1"><g transform="translate(85.38196, 311.539403)"><g><path d="M 1.0625 -12.546875 L 2.78125 -12.546875 L 2.78125 0 L 1.0625 0 Z M 1.078125 -15.828125 L 2.765625 -15.828125 L 2.765625 -13.984375 L 1.078125 -13.984375 Z M 1.078125 -15.828125 "/></g></g></g><g fill="#022179" fill-opacity="1"><g transform="translate(93.371882, 311.539403)"><g><path d="M 0.96875 -12.546875 L 3.5 -12.546875 C 4.769531 -12.546875 5.703125 -12.285156 6.296875 -11.765625 C 6.890625 -11.242188 7.1875 -10.394531 7.1875 -9.21875 C 7.1875 -7.601562 6.671875 -6.625 5.640625 -6.28125 L 7.421875 0 L 5.734375 0 L 4.09375 -5.890625 L 2.71875 -5.890625 L 2.71875 0 L 0.96875 0 Z M 3.390625 -7.140625 C 4.140625 -7.140625 4.675781 -7.285156 5 -7.578125 C 5.332031 -7.878906 5.5 -8.425781 5.5 -9.21875 C 5.5 -9.726562 5.441406 -10.128906 5.328125 -10.421875 C 5.210938 -10.722656 5.007812 -10.941406 4.71875 -11.078125 C 4.4375 -11.210938 4.03125 -11.28125 3.5 -11.28125 L 2.71875 -11.28125 L 2.71875 -7.140625 Z M 3.390625 -7.140625 "/></g></g></g><g fill="#022179" fill-opacity="1"><g transform="translate(105.555932, 311.539403)"><g/></g></g><g fill="#022179" fill-opacity="1"><g transform="translate(113.25179, 311.539403)"><g><path d="M 2.953125 -12.546875 L 4.640625 -12.546875 L 7.328125 0 L 5.671875 0 L 5.09375 -3.15625 L 2.546875 -3.15625 L 1.9375 0 L 0.296875 0 Z M 4.859375 -4.40625 L 3.8125 -10.0625 L 2.765625 -4.40625 Z M 4.859375 -4.40625 "/></g></g></g><g fill="#022179" fill-opacity="1"><g transform="translate(125.017967, 311.539403)"><g><path d="M 1.171875 -12.546875 L 2.890625 -12.546875 L 5.109375 -2.375 L 7.34375 -12.546875 L 9.046875 -12.546875 L 9.28125 0 L 7.859375 0 L 7.734375 -9.109375 L 5.609375 0 L 4.609375 0 L 2.515625 -9.109375 L 2.375 0 L 0.9375 0 Z M 1.171875 -12.546875 "/></g></g></g><g fill="#022179" fill-opacity="1"><g transform="translate(139.384196, 311.539403)"><g><path d="M 0.96875 -12.546875 L 3.859375 -12.546875 C 4.992188 -12.546875 5.832031 -12.289062 6.375 -11.78125 C 6.925781 -11.269531 7.203125 -10.476562 7.203125 -9.40625 C 7.203125 -7.800781 6.601562 -6.914062 5.40625 -6.75 C 6.144531 -6.570312 6.6875 -6.222656 7.03125 -5.703125 C 7.375 -5.179688 7.546875 -4.472656 7.546875 -3.578125 C 7.546875 -2.453125 7.28125 -1.570312 6.75 -0.9375 C 6.21875 -0.3125 5.40625 0 4.3125 0 L 0.96875 0 Z M 3.765625 -7.3125 C 4.484375 -7.3125 4.984375 -7.46875 5.265625 -7.78125 C 5.546875 -8.09375 5.6875 -8.632812 5.6875 -9.40625 C 5.6875 -9.957031 5.597656 -10.363281 5.421875 -10.625 C 5.253906 -10.894531 5 -11.0625 4.65625 -11.125 C 4.320312 -11.195312 3.816406 -11.234375 3.140625 -11.234375 L 2.71875 -11.234375 L 2.71875 -7.3125 Z M 3.90625 -1.25 C 4.414062 -1.25 4.8125 -1.328125 5.09375 -1.484375 C 5.382812 -1.648438 5.585938 -1.894531 5.703125 -2.21875 C 5.816406 -2.550781 5.875 -3.003906 5.875 -3.578125 C 5.875 -4.378906 5.707031 -4.976562 5.375 -5.375 C 5.039062 -5.78125 4.503906 -5.984375 3.765625 -5.984375 L 2.71875 -5.984375 L 2.71875 -1.25 Z M 3.90625 -1.25 "/></g></g></g><g fill="#022179" fill-opacity="1"><g transform="translate(151.645628, 311.539403)"><g><path d="M 4.21875 0.140625 C 3.332031 0.140625 2.644531 -0.03125 2.15625 -0.375 C 1.664062 -0.726562 1.328125 -1.21875 1.140625 -1.84375 C 0.953125 -2.476562 0.859375 -3.273438 0.859375 -4.234375 L 0.859375 -12.546875 L 2.546875 -12.546875 L 2.546875 -4.15625 C 2.546875 -3.195312 2.65625 -2.46875 2.875 -1.96875 C 3.09375 -1.476562 3.539062 -1.234375 4.21875 -1.234375 C 4.882812 -1.234375 5.328125 -1.476562 5.546875 -1.96875 C 5.773438 -2.46875 5.890625 -3.195312 5.890625 -4.15625 L 5.890625 -12.546875 L 7.546875 -12.546875 L 7.546875 -4.234375 C 7.546875 -3.273438 7.453125 -2.476562 7.265625 -1.84375 C 7.078125 -1.21875 6.738281 -0.726562 6.25 -0.375 C 5.769531 -0.03125 5.09375 0.140625 4.21875 0.140625 Z M 4.21875 0.140625 "/></g></g></g><g fill="#022179" fill-opacity="1"><g transform="translate(164.201107, 311.539403)"><g><path d="M 0.96875 -12.546875 L 2.71875 -12.546875 L 2.71875 -1.25 L 5.9375 -1.25 L 5.9375 0 L 0.96875 0 Z M 0.96875 -12.546875 "/></g></g></g><g fill="#022179" fill-opacity="1"><g transform="translate(174.497017, 311.539403)"><g><path d="M 2.953125 -12.546875 L 4.640625 -12.546875 L 7.328125 0 L 5.671875 0 L 5.09375 -3.15625 L 2.546875 -3.15625 L 1.9375 0 L 0.296875 0 Z M 4.859375 -4.40625 L 3.8125 -10.0625 L 2.765625 -4.40625 Z M 4.859375 -4.40625 "/></g></g></g><g fill="#022179" fill-opacity="1"><g transform="translate(186.263194, 311.539403)"><g><path d="M 0.96875 -12.546875 L 2.171875 -12.546875 L 5.734375 -4.21875 L 5.734375 -12.546875 L 7.1875 -12.546875 L 7.1875 0 L 6.0625 0 L 2.46875 -8.5625 L 2.46875 0 L 0.96875 0 Z M 0.96875 -12.546875 "/></g></g></g><g fill="#022179" fill-opacity="1"><g transform="translate(198.586529, 311.539403)"><g><path d="M 4.125 0.140625 C 2.882812 0.140625 2.007812 -0.226562 1.5 -0.96875 C 1 -1.707031 0.75 -2.726562 0.75 -4.03125 L 0.75 -8.453125 C 0.75 -9.828125 0.992188 -10.867188 1.484375 -11.578125 C 1.984375 -12.296875 2.863281 -12.65625 4.125 -12.65625 C 5.25 -12.65625 6.054688 -12.347656 6.546875 -11.734375 C 7.035156 -11.128906 7.28125 -10.234375 7.28125 -9.046875 L 7.28125 -8.046875 L 5.625 -8.046875 L 5.625 -8.9375 C 5.625 -9.507812 5.597656 -9.953125 5.546875 -10.265625 C 5.492188 -10.578125 5.359375 -10.820312 5.140625 -11 C 4.929688 -11.1875 4.597656 -11.28125 4.140625 -11.28125 C 3.660156 -11.28125 3.300781 -11.179688 3.0625 -10.984375 C 2.832031 -10.785156 2.679688 -10.503906 2.609375 -10.140625 C 2.546875 -9.785156 2.515625 -9.3125 2.515625 -8.71875 L 2.515625 -3.75 C 2.515625 -3.101562 2.5625 -2.597656 2.65625 -2.234375 C 2.757812 -1.878906 2.925781 -1.625 3.15625 -1.46875 C 3.394531 -1.3125 3.722656 -1.234375 4.140625 -1.234375 C 4.578125 -1.234375 4.90625 -1.332031 5.125 -1.53125 C 5.34375 -1.726562 5.476562 -1.992188 5.53125 -2.328125 C 5.59375 -2.671875 5.625 -3.140625 5.625 -3.734375 L 5.625 -4.65625 L 7.28125 -4.65625 L 7.28125 -3.734375 C 7.28125 -2.484375 7.046875 -1.523438 6.578125 -0.859375 C 6.109375 -0.191406 5.289062 0.140625 4.125 0.140625 Z M 4.125 0.140625 "/></g></g></g><g fill="#022179" fill-opacity="1"><g transform="translate(210.708679, 311.539403)"><g><path d="M 0.96875 -12.546875 L 5.84375 -12.546875 L 5.84375 -11.234375 L 2.71875 -11.234375 L 2.71875 -7.09375 L 5.25 -7.09375 L 5.25 -5.859375 L 2.71875 -5.859375 L 2.71875 -1.25 L 5.875 -1.25 L 5.875 0 L 0.96875 0 Z M 0.96875 -12.546875 "/></g></g></g><g fill="#022179" fill-opacity="1"><g transform="translate(221.159369, 311.539403)"><g/></g></g><g fill="#022179" fill-opacity="1"><g transform="translate(228.855235, 311.539403)"><g><path d="M 3.9375 0.140625 C 2.882812 0.140625 2.082031 -0.179688 1.53125 -0.828125 C 0.976562 -1.484375 0.671875 -2.378906 0.609375 -3.515625 L 2.15625 -3.9375 C 2.207031 -3.125 2.363281 -2.46875 2.625 -1.96875 C 2.882812 -1.476562 3.320312 -1.234375 3.9375 -1.234375 C 4.382812 -1.234375 4.722656 -1.359375 4.953125 -1.609375 C 5.191406 -1.867188 5.3125 -2.234375 5.3125 -2.703125 C 5.3125 -3.222656 5.203125 -3.648438 4.984375 -3.984375 C 4.765625 -4.328125 4.421875 -4.707031 3.953125 -5.125 L 1.84375 -6.984375 C 1.414062 -7.359375 1.109375 -7.757812 0.921875 -8.1875 C 0.734375 -8.613281 0.640625 -9.132812 0.640625 -9.75 C 0.640625 -10.675781 0.898438 -11.390625 1.421875 -11.890625 C 1.953125 -12.398438 2.671875 -12.65625 3.578125 -12.65625 C 4.566406 -12.65625 5.3125 -12.390625 5.8125 -11.859375 C 6.320312 -11.335938 6.628906 -10.523438 6.734375 -9.421875 L 5.25 -9.015625 C 5.195312 -9.742188 5.050781 -10.304688 4.8125 -10.703125 C 4.582031 -11.097656 4.171875 -11.296875 3.578125 -11.296875 C 3.128906 -11.296875 2.785156 -11.179688 2.546875 -10.953125 C 2.316406 -10.722656 2.203125 -10.378906 2.203125 -9.921875 C 2.203125 -9.554688 2.265625 -9.242188 2.390625 -8.984375 C 2.515625 -8.734375 2.722656 -8.476562 3.015625 -8.21875 L 5.140625 -6.359375 C 5.691406 -5.878906 6.128906 -5.351562 6.453125 -4.78125 C 6.773438 -4.21875 6.9375 -3.570312 6.9375 -2.84375 C 6.9375 -1.925781 6.65625 -1.195312 6.09375 -0.65625 C 5.539062 -0.125 4.820312 0.140625 3.9375 0.140625 Z M 3.9375 0.140625 "/></g></g></g><g fill="#022179" fill-opacity="1"><g transform="translate(240.327372, 311.539403)"><g><path d="M 0.96875 -12.546875 L 5.84375 -12.546875 L 5.84375 -11.234375 L 2.71875 -11.234375 L 2.71875 -7.09375 L 5.25 -7.09375 L 5.25 -5.859375 L 2.71875 -5.859375 L 2.71875 -1.25 L 5.875 -1.25 L 5.875 0 L 0.96875 0 Z M 0.96875 -12.546875 "/></g></g></g><g fill="#022179" fill-opacity="1"><g transform="translate(250.778062, 311.539403)"><g><path d="M 0.96875 -12.546875 L 3.5 -12.546875 C 4.769531 -12.546875 5.703125 -12.285156 6.296875 -11.765625 C 6.890625 -11.242188 7.1875 -10.394531 7.1875 -9.21875 C 7.1875 -7.601562 6.671875 -6.625 5.640625 -6.28125 L 7.421875 0 L 5.734375 0 L 4.09375 -5.890625 L 2.71875 -5.890625 L 2.71875 0 L 0.96875 0 Z M 3.390625 -7.140625 C 4.140625 -7.140625 4.675781 -7.285156 5 -7.578125 C 5.332031 -7.878906 5.5 -8.425781 5.5 -9.21875 C 5.5 -9.726562 5.441406 -10.128906 5.328125 -10.421875 C 5.210938 -10.722656 5.007812 -10.941406 4.71875 -11.078125 C 4.4375 -11.210938 4.03125 -11.28125 3.5 -11.28125 L 2.71875 -11.28125 L 2.71875 -7.140625 Z M 3.390625 -7.140625 "/></g></g></g><g fill="#022179" fill-opacity="1"><g transform="translate(262.962115, 311.539403)"><g><path d="M 0.359375 -12.546875 L 2 -12.546875 L 3.984375 -3.296875 L 5.875 -12.546875 L 7.46875 -12.546875 L 4.6875 0 L 3.15625 0 Z M 0.359375 -12.546875 "/></g></g></g><g fill="#022179" fill-opacity="1"><g transform="translate(274.929492, 311.539403)"><g><path d="M 1.0625 -12.546875 L 2.78125 -12.546875 L 2.78125 0 L 1.0625 0 Z M 1.078125 -15.828125 L 2.765625 -15.828125 L 2.765625 -13.984375 L 1.078125 -13.984375 Z M 1.078125 -15.828125 "/></g></g></g><g fill="#022179" fill-opacity="1"><g transform="translate(282.91942, 311.539403)"><g><path d="M 4.125 0.140625 C 2.882812 0.140625 2.007812 -0.226562 1.5 -0.96875 C 1 -1.707031 0.75 -2.726562 0.75 -4.03125 L 0.75 -8.453125 C 0.75 -9.828125 0.992188 -10.867188 1.484375 -11.578125 C 1.984375 -12.296875 2.863281 -12.65625 4.125 -12.65625 C 5.25 -12.65625 6.054688 -12.347656 6.546875 -11.734375 C 7.035156 -11.128906 7.28125 -10.234375 7.28125 -9.046875 L 7.28125 -8.046875 L 5.625 -8.046875 L 5.625 -8.9375 C 5.625 -9.507812 5.597656 -9.953125 5.546875 -10.265625 C 5.492188 -10.578125 5.359375 -10.820312 5.140625 -11 C 4.929688 -11.1875 4.597656 -11.28125 4.140625 -11.28125 C 3.660156 -11.28125 3.300781 -11.179688 3.0625 -10.984375 C 2.832031 -10.785156 2.679688 -10.503906 2.609375 -10.140625 C 2.546875 -9.785156 2.515625 -9.3125 2.515625 -8.71875 L 2.515625 -3.75 C 2.515625 -3.101562 2.5625 -2.597656 2.65625 -2.234375 C 2.757812 -1.878906 2.925781 -1.625 3.15625 -1.46875 C 3.394531 -1.3125 3.722656 -1.234375 4.140625 -1.234375 C 4.578125 -1.234375 4.90625 -1.332031 5.125 -1.53125 C 5.34375 -1.726562 5.476562 -1.992188 5.53125 -2.328125 C 5.59375 -2.671875 5.625 -3.140625 5.625 -3.734375 L 5.625 -4.65625 L 7.28125 -4.65625 L 7.28125 -3.734375 C 7.28125 -2.484375 7.046875 -1.523438 6.578125 -0.859375 C 6.109375 -0.191406 5.289062 0.140625 4.125 0.140625 Z M 4.125 0.140625 "/></g></g></g><g fill="#022179" fill-opacity="1"><g transform="translate(295.04157, 311.539403)"><g><path d="M 0.96875 -12.546875 L 5.84375 -12.546875 L 5.84375 -11.234375 L 2.71875 -11.234375 L 2.71875 -7.09375 L 5.25 -7.09375 L 5.25 -5.859375 L 2.71875 -5.859375 L 2.71875 -1.25 L 5.875 -1.25 L 5.875 0 L 0.96875 0 Z M 0.96875 -12.546875 "/></g></g></g></svg>