<?xml version="1.0" encoding="UTF-8"?>
<!DOCTYPE svg PUBLIC "-//W3C//DTD SVG 1.1//EN" "http://www.w3.org/Graphics/SVG/1.1/DTD/svg11.dtd">
<svg xmlns="http://www.w3.org/2000/svg" version="1.1" width="512px" height="512px" style="shape-rendering:geometricPrecision; text-rendering:geometricPrecision; image-rendering:optimizeQuality; fill-rule:evenodd; clip-rule:evenodd" xmlns:xlink="http://www.w3.org/1999/xlink">
<g><path style="opacity:0.992" fill="#2b97d0" d="M 257.5,111.5 C 295.501,111.333 333.501,111.5 371.5,112C 372.312,118.085 372.812,124.252 373,130.5C 380.401,124.762 388.068,119.429 396,114.5C 396.873,114.735 397.707,115.069 398.5,115.5C 399.667,141.494 399.833,167.494 399,193.5C 397.274,194.576 395.441,194.743 393.5,194C 386.577,188.955 379.744,183.788 373,178.5C 372.813,185.081 372.313,191.581 371.5,198C 333.5,198.667 295.5,198.667 257.5,198C 256.171,169.167 256.171,140.333 257.5,111.5 Z"/></g>
<g><path style="opacity:0.992" fill="#2b97d0" d="M 156.5,139.5 C 185.963,138.808 205.13,152.475 214,180.5C 218.817,208.362 208.983,229.196 184.5,243C 198.437,281.271 224.271,308.104 262,323.5C 280.937,292.523 306.77,285.023 339.5,301C 362.459,320.1 368.292,343.6 357,371.5C 346.041,390.753 329.374,400.42 307,400.5C 221.176,395.444 160.843,353.777 126,275.5C 113.274,244.169 108.941,211.835 113,178.5C 119.86,156.798 134.36,143.798 156.5,139.5 Z"/></g>
</svg>
