<svg xmlns="http://www.w3.org/2000/svg" width="32.497" height="32.415" viewBox="0 0 32.497 32.415">
    <g>
        <g>
            <path fill="#fff" stroke="#fff" stroke-width="0.3px" d="M52.912 16.124a4.3 4.3 0 0 0-1.273-3.059 4.391 4.391 0 0 0-6.132 0c-1.183.823-4.092 4.162-4.3 4.244L23.172 35.34a1.464 1.464 0 0 0-.337.571L20.8 42a1.464 1.464 0 0 0 1.844 1.859l6.088-2.034a1.464 1.464 0 0 0 .571-.337L41.2 29.574a19.8 19.8 0 0 1 2.927-2.927l7.508-7.508a4.3 4.3 0 0 0 1.277-3.015zM24.84 39.087l.717.717-1.068.351zm24.72-21.953L28.265 38.37l-1.99-1.99 21.31-21.31a1.464 1.464 0 0 1 1.99 0 1.464 1.464 0 0 1 0 1.99z" transform="translate(-4.494 -1.576) translate(4.653 1.726) translate(-20.724 -11.817)"/>
        </g>
    </g>
</svg>
