<svg xmlns="http://www.w3.org/2000/svg" width="31.616" height="33.825" viewBox="0 0 31.616 33.825">
    <g>
        <g>
            <path fill="#fff" stroke="#fff" stroke-width="0.7px" d="M5.476 280.6a1.663 1.663 0 0 0-1.655 1.655v2.208a1.667 1.667 0 0 0 1.655 1.659v1.136a4.977 4.977 0 0 0-4.418 4.935v1.1a.552.552 0 0 0 .554.55h19.322v10.491a.552.552 0 1 0 1.1 0v-12.143a4.961 4.961 0 0 0-4.418-4.935v-1.136a1.67 1.67 0 0 0 1.658-1.659v-2.208a1.666 1.666 0 0 0-1.654-1.653zm0 1.105H17.62a.539.539 0 0 1 .554.55v2.208a.543.543 0 0 1-.554.554H5.476a.539.539 0 0 1-.55-.554v-2.208a.536.536 0 0 1 .55-.555zm1.1 4.418h9.935v1.654a.552.552 0 0 0 .554.55 3.847 3.847 0 0 1 3.865 3.868v.55H2.162v-.55a3.85 3.85 0 0 1 3.868-3.868.552.552 0 0 0 .55-.55zM1.6 294.942a.553.553 0 0 0-.546.563v16.533a1.68 1.68 0 0 0 1.658 1.683h12.149a.552.552 0 0 0 0-1.1H2.716a.555.555 0 0 1-.554-.579V308.2h11.595a.552.552 0 1 0 0-1.1H2.162v-11.6a.552.552 0 0 0-.559-.563zm17.679 11.048a3.866 3.866 0 1 0 0 7.731h8.831a3.866 3.866 0 0 0 0-7.731zm0 1.105h3.863v5.522h-3.863a2.761 2.761 0 1 1 0-5.522zm4.968 0h3.863a2.761 2.761 0 1 1 0 5.522h-3.864z" transform="translate(.35 .35) translate(-1.058 -280.596)"/>
        </g>
    </g>
</svg>
