<svg xmlns="http://www.w3.org/2000/svg" width="114.359" height="114.359" viewBox="0 0 114.359 114.359">
    <defs>
        <filter id="q7dalb8dya" width="114.359" height="114.359" x="0" y="0" filterUnits="userSpaceOnUse">
            <feOffset dx="3" dy="3"/>
            <feGaussianBlur result="blur" stdDeviation="8.5"/>
            <feFlood flood-color="#205072" flood-opacity=".212"/>
            <feComposite in2="blur" operator="in"/>
            <feComposite in="SourceGraphic"/>
        </filter>
    </defs>
    <g>
        <g>
            <g filter="url(#q7dalb8dya)" transform="translate(22.5 22.5) translate(-877.64 -622.891) translate(855.14 600.39)">
                <rect width="63.36" height="63.36" fill="#2cb1b0" rx="31.68" transform="translate(22.5 22.5)"/>
            </g>
            <g>
                <g>
                    <path fill="#fff" stroke="#fff" stroke-width="0.5px" d="M59.214 84.314a.753.753 0 0 1-1.065 1.065l-1.9-1.9-.044 5.342a.753.753 0 0 1-.753.753h-11.12a.753.753 0 0 1 0-1.506h10.38l.04-4.557-1.866 1.865a.753.753 0 0 1-1.065-1.065l3.164-3.164a.753.753 0 0 1 1.065 0l3.164 3.164zM55.422 58.24a5.286 5.286 0 1 1-5.286 5.286 5.289 5.289 0 0 1 5.286-5.286zm3.252 13.26l-2.611 4.3a.75.75 0 0 1-1.283 0l-2.61-4.3a7.95 7.95 0 0 0-4.651 6.8h15.807a7.943 7.943 0 0 0-4.652-6.8zm-5.051-.5l1.8 2.96 1.8-2.96a7.87 7.87 0 0 0-3.6 0zm3.626-1.535a9.458 9.458 0 0 1 7.592 9.24v.348a.753.753 0 0 1-.753.753H46.756a.753.753 0 0 1-.756-.753V78.7a9.419 9.419 0 0 1 11.246-9.24zm-1.827-9.719a3.78 3.78 0 1 0 3.78 3.78 3.776 3.776 0 0 0-3.78-3.78zm-20.973 13.42a5.286 5.286 0 1 1-5.286 5.286 5.29 5.29 0 0 1 5.286-5.286zM37.7 86.421l-2.611 4.3a.75.75 0 0 1-1.283 0l-2.606-4.3a7.95 7.95 0 0 0-4.651 6.8h15.804a7.943 7.943 0 0 0-4.651-6.8zm-5.051-.5l1.8 2.96 1.8-2.96a7.877 7.877 0 0 0-3.599.004zm3.626-1.534a9.458 9.458 0 0 1 7.592 9.24v.348a.753.753 0 0 1-.753.753H25.783a.753.753 0 0 1-.753-.753v-.348a9.419 9.419 0 0 1 11.246-9.24zm-1.827-9.72a3.78 3.78 0 1 0 3.78 3.78 3.776 3.776 0 0 0-3.779-3.776z" transform="translate(22.5 22.5) translate(-877.64 -622.891) translate(888.922 633.042) translate(-25.03 -58.24)"/>
                </g>
            </g>
        </g>
    </g>
</svg>
