<svg xmlns="http://www.w3.org/2000/svg" width="28.736" height="32.725" viewBox="0 0 28.736 32.725">
    <defs>
        <style>
            .cls-1{fill:#fff}
        </style>
    </defs>
    <g id="noun_Medical_History_2228524" transform="translate(.066)">
        <g id="_24-Medical_history">
            <path id="Path_171" d="M34.634 12.954a2 2 0 0 0-.593-1.425 2.045 2.045 0 0 0-2.857 0l-.641.641V2.045A2.045 2.045 0 0 0 28.5 0H12.136a.682.682 0 0 0-.484.2L6.2 5.652a.682.682 0 0 0-.2.484v8.181h1.364v-7.5h3.409a2.045 2.045 0 0 0 2.045-2.045V1.364H28.5a.682.682 0 0 1 .682.682v11.46l-8.4 8.4a.682.682 0 0 0-.157.266l-.948 2.836a.682.682 0 0 0 .859.866l2.836-.948a.682.682 0 0 0 .266-.157l5.543-5.55V30.68a.682.682 0 0 1-.682.682H8.045a.682.682 0 0 1-.682-.682V19.771H6V30.68a2.045 2.045 0 0 0 2.045 2.045H28.5a2.045 2.045 0 0 0 2.045-2.045V17.856l3.5-3.5a2 2 0 0 0 .589-1.402zm-23.862-7.5H8.325l3.129-3.129v2.447a.682.682 0 0 1-.682.682zm10.786 18.2l.334.334-.5.164zm11.515-10.23l-9.92 9.892-.927-.927 9.927-9.927a.682.682 0 0 1 .927 0 .682.682 0 0 1 0 .927z" class="cls-1" transform="translate(-5.965)"/>
            <path id="Rectangle_13" d="M0 0H6V2H0z" class="cls-1" transform="translate(5.934 21.988)"/>
            <path id="Rectangle_14" d="M0 0H9V2H0z" class="cls-1" transform="translate(2.934 24.988)"/>
            <path id="Rectangle_15" d="M0 0H18V1H0z" class="cls-1" transform="translate(2.934 27.988)"/>
            <path id="Rectangle_16" d="M0 0H1V2H0z" class="cls-1" transform="translate(2.934 21.988)"/>
            <path id="Rectangle_17" d="M0 0H2V3H0z" class="cls-1" transform="translate(-.066 15.988)"/>
            <path id="Path_172" d="M27.994 14.623a4.547 4.547 0 0 0-1.364-3.252 4.731 4.731 0 0 0-6.136-.409 4.731 4.731 0 0 0-6.136.409 4.568 4.568 0 0 0 0 6.531L20 23.465a.682.682 0 0 0 .954 0l5.672-5.577a4.547 4.547 0 0 0 1.368-3.265zm-12.667-2.3a3.354 3.354 0 0 1 4.691 0 .682.682 0 0 0 .954 0 3.354 3.354 0 0 1 4.691 0 3.116 3.116 0 0 1 .845 3.136h-3.286a.682.682 0 0 0-.484.2l-.879.886-2.925-2.925a.682.682 0 0 0-.961 0l-1.848 1.841h-1.637a3.116 3.116 0 0 1 .839-3.136zm5.168 9.681l-5.168-5.084-.075-.1H16.4a.682.682 0 0 0 .484-.2l1.561-1.568 2.925 2.925a.682.682 0 0 0 .961 0l1.169-1.152h2.236l-.075.089z" class="cls-1" transform="translate(-8.187 -3.19)"/>
        </g>
    </g>
</svg>
