<?xml version="1.0"?>
<svg width="468" height="208" xmlns="http://www.w3.org/2000/svg" xmlns:svg="http://www.w3.org/2000/svg" clip-rule="evenodd" fill-rule="evenodd" version="1.1">
 <g class="layer">
  <title>Layer 1</title>
  <g id="svg_1" transform="matrix(1 0 0 1 0 0)">
   <path d="m69.5,288.5c2.69,-0.16 5.35,0 8,0.5c42.55,17.46 85.22,34.63 128,51.5c38.27,-12.92 76.6,-25.76 115,-38.5c12.32,-2.51 24.32,-1.51 36,3c1.17,1.17 2.33,2.33 3.5,3.5c0.67,4.67 0.67,9.33 0,14c-6.65,10.32 -15.48,18.15 -26.5,23.5c-82,27.33 -164,54.67 -246,82c-29.78,1.32 -59.12,-1.68 -88,-9c-3.54,-1.83 -3.87,-4.16 -1,-7c37.53,-12.68 74.87,-25.84 112,-39.5c-17.83,-21.67 -35.67,-43.33 -53.5,-65c-0.67,-1.67 -0.67,-3.33 0,-5c4,-4.84 8.17,-9.5 12.5,-14z" fill="#050819" id="svg_2" opacity="0.12"/>
  </g>
  <g id="svg_3">
   <path d="m605.5,79.5c5.63,2.13 7.46,6.13 5.5,12c-2.2,5.08 -5.37,9.41 -9.5,13c-1.11,-2.2 -0.94,-4.2 0.5,-6c0.78,2.2 1.94,2.2 3.5,0c-1.55,-3.67 -1.05,-4.34 1.5,-2c1.81,-3.1 2.97,-6.43 3.5,-10c-1.33,-2.65 -2.99,-4.98 -5,-7z" fill="#3e8ad7" id="svg_4" opacity="0.85"/>
  </g>
  <g id="svg_5">
   <path d="m277.5,321.5c16.06,5.54 31.73,11.87 47,19c-2.35,-0.34 -4.69,-0.84 -7,-1.5c-7.42,-2.91 -14.76,-6.08 -22,-9.5c-3.8,1.42 -7.3,0.42 -10.5,-3c-0.31,0.81 -0.81,1.47 -1.5,2c-1.21,-0.77 -1.21,-1.61 0,-2.5c-2.32,-1.3 -4.32,-2.8 -6,-4.5z" fill="#3e91e4" id="svg_6" opacity="0.87"/>
  </g>
  <g id="svg_7">
   <path d="m187.4,89.09c1.27,0.8 2.86,1.53 4.76,2.2c-1.21,0.29 -1.32,0.63 -0.34,1.02c0.69,-0.17 1.23,-0.41 1.62,-0.72c2.4,1.59 5.4,2.21 9,1.87c6.02,1.84 12.17,3.58 18.42,5.23c1.98,0.41 4.01,0.76 6.07,1.04c14.55,3.63 28.88,7.39 42.97,11.3c-0.1,0.51 0.38,0.89 1.45,1.14c1.88,0.51 3.91,0.86 6.07,1.04c4.55,0.07 9.1,0.18 13.65,0.32c4.1,-1.09 8.32,-1.84 12.68,-2.24c6.45,-0.43 12.93,-0.6 19.44,-0.52c1.57,-0.46 2.97,-0.99 4.2,-1.58c0.3,0.02 0.6,0.04 0.9,0.06c7.15,-0.16 14.03,-0.65 20.68,-1.48c4.5,-0.2 9.01,-0.44 13.55,-0.72c1.2,0.17 2.35,0.39 3.45,0.66c2.7,-0.94 5.56,-1.71 8.58,-2.32c1.24,-0.05 2.49,-0.11 3.72,-0.16c4.26,0.06 8.33,-0.21 12.2,-0.82c9.1,-0.16 17.63,0.84 25.58,3.02c1.52,0.95 2.69,2 3.52,3.16c-0.96,1.42 -2.46,2.7 -4.51,3.85c-1.96,-1.11 -2.5,-0.87 -1.62,0.72c-1.7,0.8 -2.74,0.73 -3.14,-0.22c-1.54,0.64 -1.96,1.44 -1.27,2.41c-6.75,2.53 -14.56,3.93 -23.43,4.2c-2.09,-0.21 -4.2,-0.29 -6.34,-0.23c-4.51,0.66 -8.98,1.26 -13.44,1.77c-54.88,4.45 -109.86,8.82 -164.95,13.1c-2.44,0.01 -4.67,0.28 -6.69,0.78c-10.62,0.65 -21.24,1.3 -31.85,1.95c-13.26,-0.54 -26.4,-1.45 -39.44,-2.73c-7.11,-0.8 -14.15,-1.7 -21.1,-2.71c-0.01,-0.26 -0.24,-0.48 -0.69,-0.67c-3.36,-0.69 -6.86,-1.21 -10.48,-1.56c-1,-0.45 -2.08,-0.88 -3.24,-1.26c5.01,-1.2 10.34,-1.6 15.99,-1.18c-0.88,-0.38 -0.77,-0.72 0.34,-1.02c0.88,-0.19 1.82,-0.26 2.83,-0.22c5.53,0.11 10.59,-0.37 15.16,-1.44c2.86,0.27 5.39,0.02 7.58,-0.72c5.82,-0.76 11.77,-1.18 17.85,-1.26c12.04,-0.58 23.69,-1.58 34.95,-2.98c3.56,-0.65 7.35,-1.01 11.37,-1.08c-14.36,-10.42 -28.23,-20.94 -41.63,-31.59c4.18,-2.18 9.07,-3.98 14.67,-5.43c7.18,1.93 14.15,3.94 20.9,6.02z" fill="#3498fc" id="svg_8" opacity="1"/>
   <path d="m268.19,89.91c-0.94,0.11 -1.56,0.55 -2.38,0.67c-0.74,0.11 -1.56,-0.04 -2.45,0.02c-1,0.06 -1.6,0.32 -2.34,0.49c-0.92,0.2 -1.71,0.12 -2.49,0.44c-0.81,0.33 -1.24,0.88 -2.04,1.1c-0.83,0.23 -1.48,0.4 -2.42,0.62c-0.66,0.15 -1.41,0.51 -2.21,0.68c-0.78,0.17 -1.87,-0.26 -2.52,0.12c-0.62,0.37 -1.04,0.64 -1.89,0.64c-0.75,0 -1.6,0 -2.45,0c-0.85,0 -1.7,0 -2.55,0c-0.81,0 -1.62,0 -2.54,0c-0.74,0 -1.73,0 -2.38,0c-0.96,0 -1.64,0.04 -2.33,-0.04c-1.15,-0.13 -1.69,-0.46 -2.62,-0.59c-0.7,-0.09 -1.46,-0.06 -2.4,-0.06c-0.82,0 -1.78,0 -2.53,0c-0.94,0 -1.71,0.04 -2.45,-0.06c-0.96,-0.12 -1.68,-0.44 -2.64,-0.57c-0.71,-0.09 -1.62,-0.06 -2.34,-0.06c-0.9,0 -1.63,-0.03 -2.56,-0.24c-0.77,-0.18 -1.5,-0.39 -2.26,-0.43c-0.94,-0.05 -1.87,-0.01 -2.67,-0.01c-0.75,0 -1.72,0 -2.37,0c-0.97,0 -1.86,0 -2.67,0c-0.89,0 -1.72,0 -2.43,0c-0.84,0 -1.81,-0.02 -2.46,0.24c-0.77,0.31 -1.54,0.43 -2.47,0.44c-0.68,0.01 -1.53,-0.01 -2.38,0c-0.92,0.01 -1.35,0.53 -2.08,0.68c-0.81,0.17 -1.69,-0.01 -2.17,0.29c-0.59,0.37 -1.45,0.2 -2.24,0.4c-0.71,0.18 -1.26,0.58 -2.01,0.73c-0.83,0.17 -1.6,0.54 -2.23,0.68c-0.9,0.2 -1.55,0.39 -2.45,0.63c-0.79,0.21 -1.53,0.6 -2.38,0.8l-0.57,0.28l-0.85,0.29" fill="none" id="svg_39"/>
   <path d="m184.28,102.19c0.94,0 1.7,0 2.55,0c0.85,0 1.7,0 2.55,0c0.85,0 1.75,0.11 2.55,-0.15c0.63,-0.21 1.46,-0.27 2.26,-0.55c0.71,-0.24 1.14,-0.66 1.98,-0.67c0.91,-0.01 1.31,-0.56 2.08,-0.68c0.83,-0.13 1.76,0.21 2.52,-0.02c0.7,-0.21 1.49,-0.39 2.15,-0.82c0.58,-0.38 0.97,-0.61 1.74,-0.92c0.74,-0.3 1.53,-0.63 2.26,-0.86c0.71,-0.22 1.63,0.01 2.45,-0.14c0.81,-0.15 1.52,-0.57 2.15,-0.72c0.92,-0.2 1.48,-0.44 2.39,-0.69c0.74,-0.21 1.47,-0.4 2.46,-0.56c0.72,-0.11 1.64,-0.24 2.35,-0.41c0.76,-0.18 1.69,-0.46 2.34,-0.67c0.64,-0.2 1.58,-0.49 2.36,-0.67c0.76,-0.17 1.71,-0.28 2.54,-0.37c0.77,-0.08 1.5,-0.3 2.27,-0.47c0.92,-0.2 1.64,-0.27 2.37,-0.58l0.6,-0.5l0.69,-0.36l0.68,-0.1" fill="none" id="svg_40"/>
   <path d="m-289,-32.91c0.94,0.68 1.7,0.63 2.52,0.71c0.83,0.08 1.5,0.28 2.3,0.42c1.12,0.19 1.7,0.19 2.57,0.28c0.61,0.06 1.6,0.25 2.29,0.45c0.74,0.21 1.51,0.48 2.74,0.88c0.43,0.14 1.31,0.41 1.76,0.55c0.92,0.29 1.39,0.43 2.79,0.93c0.48,0.17 0.95,0.35 1.92,0.73c0.5,0.19 1.01,0.4 2.1,0.8c1.17,0.42 1.8,0.62 2.45,0.82c0.67,0.21 1.37,0.41 2.08,0.61c0.72,0.21 1.46,0.41 2.21,0.61c1.5,0.41 2.26,0.61 3.02,0.82c0.76,0.21 1.53,0.43 2.3,0.65c0.78,0.23 1.58,0.48 2.38,0.75c1.67,0.56 2.52,0.89 3.4,1.23c0.9,0.35 1.8,0.72 2.73,1.1c0.94,0.39 1.89,0.79 2.85,1.19c1.96,0.82 2.95,1.23 3.96,1.63c1.01,0.41 2.03,0.81 3.05,1.21c1.03,0.4 2.06,0.8 3.09,1.18c2.07,0.77 3.11,1.14 4.15,1.5c1.04,0.37 2.1,0.73 3.17,1.09c1.08,0.37 2.18,0.74 3.29,1.12c2.31,0.79 3.5,1.21 4.72,1.64c1.24,0.44 2.51,0.89 3.8,1.34c1.31,0.46 2.63,0.93 3.97,1.41c2.71,0.96 4.08,1.43 5.47,1.91c1.4,0.48 2.81,0.97 4.24,1.46c1.45,0.5 2.92,1 4.41,1.52c3.06,1.06 4.63,1.62 6.22,2.18c1.61,0.57 3.22,1.15 4.84,1.73c1.61,0.58 3.21,1.16 4.79,1.73c3.08,1.11 4.57,1.66 6.04,2.18c1.44,0.52 2.86,1.03 4.28,1.53c1.41,0.5 2.84,1.01 4.28,1.5c2.95,1.02 4.48,1.53 6.04,2.05c1.58,0.53 3.19,1.05 4.81,1.58c1.63,0.53 3.26,1.06 4.9,1.58c3.23,1.04 4.83,1.54 6.41,2.05c1.56,0.5 3.12,0.98 4.67,1.46c1.54,0.48 3.08,0.95 4.62,1.4c3.09,0.91 4.66,1.34 6.23,1.78c1.58,0.44 3.18,0.87 4.78,1.31c1.62,0.45 3.26,0.9 4.91,1.37c3.37,0.97 5.07,1.5 6.78,2.05c1.73,0.55 3.46,1.11 5.2,1.67c1.73,0.56 3.45,1.12 5.15,1.67c3.34,1.07 4.98,1.57 6.6,2.04c1.58,0.47 3.15,0.92 4.69,1.35c1.52,0.42 3.03,0.83 4.52,1.22c2.94,0.77 4.4,1.14 5.85,1.5c1.44,0.36 2.87,0.72 4.28,1.08c1.41,0.36 2.81,0.71 4.2,1.08c2.76,0.73 4.12,1.11 5.47,1.5c1.34,0.38 2.67,0.77 3.98,1.16c1.3,0.38 2.58,0.76 3.86,1.13c2.48,0.71 3.7,1.04 4.9,1.36c1.18,0.31 2.34,0.61 3.48,0.91c1.12,0.29 2.23,0.57 3.31,0.85c2.11,0.54 3.14,0.82 4.15,1.09c0.99,0.27 1.97,0.54 2.93,0.81c0.95,0.26 1.88,0.52 2.8,0.77c1.81,0.49 2.7,0.73 3.58,0.95c0.86,0.22 1.71,0.43 2.53,0.63c0.8,0.19 1.57,0.37 2.32,0.54c1.39,0.31 2.03,0.43 2.64,0.55c0.57,0.11 1.12,0.21 1.64,0.31c0.5,0.09 0.97,0.18 1.43,0.28c0.87,0.19 1.29,0.3 1.7,0.41c0.4,0.11 0.78,0.23 1.16,0.34l0.36,0.11l0.34,0.1l0.33,0.1" fill="none" id="svg_41"/>
   <line fill="none" id="svg_42" points="null" x1="71.63" x2="90.46" y1="68.46" y2="28.8"/>
   <path d="m99.43,46.92c1.13,0 1.98,0 2.72,0c0.89,0 1.54,0.06 2.48,0.34c0.77,0.23 1.65,0.28 2.33,0.42c0.84,0.17 1.39,0.66 1.94,0.96c0.88,0.48 1.54,0.59 2.21,0.71c0.68,0.12 2,0.24 2.61,0.29c0.88,0.08 1.75,0.21 2.58,0.5c0.59,0.2 1.17,0.48 2.13,0.88c0.67,0.28 1.39,0.55 2.15,0.82c0.39,0.14 1.62,0.55 2.49,0.82c0.44,0.14 1.32,0.41 1.75,0.55c0.84,0.27 2,0.68 2.69,0.96c0.67,0.27 1.32,0.56 2.39,0.96c0.38,0.14 1.2,0.41 2.06,0.7c0.44,0.15 1.33,0.44 2.18,0.78c0.84,0.34 1.24,0.54 2.06,0.92c0.42,0.2 1.26,0.61 2.18,1.01c0.97,0.42 1.48,0.61 2,0.82c0.52,0.21 1.55,0.61 2.06,0.82c0.98,0.4 1.89,0.82 2.32,1.02c0.84,0.4 1.24,0.6 2.07,0.97c0.82,0.36 1.7,0.69 2.14,0.84c0.91,0.32 1.38,0.47 2.3,0.83c0.95,0.37 1.89,0.82 2.36,1.05c0.49,0.24 0.97,0.5 1.98,1.02c0.52,0.27 1.62,0.82 2.19,1.09c0.59,0.27 1.18,0.54 1.79,0.8c0.6,0.26 1.2,0.52 2.36,0.99c1.08,0.44 1.59,0.63 2.08,0.82c0.93,0.36 1.39,0.53 2.32,0.87c0.49,0.18 1.56,0.56 2.14,0.78c0.62,0.22 1.26,0.46 1.92,0.7c0.68,0.25 1.37,0.51 2.06,0.78c0.69,0.27 2.04,0.81 2.69,1.09c0.63,0.27 1.25,0.54 2.43,1.06c0.57,0.25 1.12,0.5 1.67,0.73c1.05,0.44 2.08,0.82 2.57,1c0.49,0.17 1.46,0.49 1.94,0.65c1.42,0.48 1.89,0.66 2.83,1.03c0.47,0.19 0.93,0.38 1.84,0.78c0.45,0.2 1.73,0.82 2.14,1.02c0.81,0.4 1.2,0.61 2.01,0.99c1.22,0.56 1.66,0.72 2.55,1.02c0.45,0.15 1.37,0.43 1.84,0.55c1.4,0.36 1.88,0.44 2.82,0.62c0.46,0.09 1.36,0.24 2.2,0.43c1.17,0.27 1.85,0.52 2.48,0.78c0.61,0.25 1.45,0.67 2.02,0.94c0.84,0.4 1.4,0.67 2.26,0.98c0.84,0.3 1.44,0.45 2.03,0.63c1.29,0.38 1.98,0.61 2.33,0.73c0.71,0.24 1.39,0.49 2.72,0.88c0.61,0.18 1.2,0.33 2.34,0.6c0.57,0.14 1.41,0.34 1.98,0.48c1.13,0.27 1.7,0.41 2.58,0.61c0.61,0.14 1.59,0.34 2.28,0.48c0.71,0.15 1.77,0.37 2.76,0.69c0.64,0.21 1.22,0.47 1.81,0.7c1.13,0.44 1.7,0.62 2.29,0.77c0.9,0.23 1.88,0.43 2.58,0.56c0.7,0.13 1.4,0.27 2.76,0.4c0.63,0.06 1.27,0.07 2.25,0.14c1.11,0.08 1.51,0.13 2.34,0.24c0.85,0.11 1.68,0.24 2.83,0.45c0.69,0.13 1.31,0.28 2.21,0.42c0.85,0.13 1.71,0.18 2.3,0.19c1.25,0.02 1.93,0.01 2.64,0.01c0.73,0 1.48,0 2.61,0c0.75,0 1.51,0 2.26,-0.04c1.13,-0.06 1.89,-0.15 2.65,-0.25c0.78,-0.1 1.58,-0.22 2.84,-0.31c0.43,-0.03 1.31,-0.06 2.18,-0.12c0.43,-0.03 1.64,-0.15 2.35,-0.35c1.01,-0.28 1.61,-0.58 2.58,-0.98c0.68,-0.28 1.03,-0.41 1.77,-0.68c0.77,-0.28 2,-0.68 2.43,-0.82c0.88,-0.28 1.33,-0.41 2.22,-0.71c0.45,-0.15 1.76,-0.62 2.58,-0.99c0.41,-0.18 1.21,-0.58 1.61,-0.79c0.82,-0.43 1.64,-0.9 2.07,-1.14c0.87,-0.5 1.31,-0.75 2.15,-1.26c0.41,-0.25 0.83,-0.48 1.82,-1.23c0.58,-0.44 1.06,-0.89 1.52,-1.31c0.68,-0.62 1.17,-1.03 1.68,-1.44c0.52,-0.41 1.05,-0.81 1.75,-1.43c0.45,-0.4 0.84,-0.81 1.43,-1.37c0.56,-0.53 1.13,-0.99 1.7,-1.42c0.56,-0.42 1.17,-0.79 1.78,-1.33c0.56,-0.5 0.67,-1.05 0.67,-1.7c0,-0.52 0,-1.2 0,-1.71c0.01,-0.7 0.21,-1.35 0.47,-1.81l0.36,-0.67l0.11,-0.56l0,-0.62" fill="none" id="svg_44"/>
  </g>
  <g id="svg_9">
   <path d="m509.5,98.5c-1.12,1.63 -2.46,3.13 -4,4.5c-7.13,0.9 -14.13,2.4 -21,4.5c8.03,-3.57 16.36,-6.57 25,-9z" fill="#3f89d6" id="svg_10" opacity="0.85"/>
  </g>
  <g id="svg_11">
   <path d="m532.5,91.5c-6.94,3.09 -14.27,5.42 -22,7c7,-3.11 14.33,-5.44 22,-7z" fill="#3d86cc" id="svg_12" opacity="0.78"/>
  </g>
  <g id="svg_13">
   <path d="m559.5,81.5c-3.07,1.96 -5.9,4.3 -8.5,7c-1.3,-0.46 -2.63,-0.79 -4,-1c-4.84,1.45 -9.67,2.78 -14.5,4c8.63,-4.1 17.63,-7.43 27,-10z" fill="#3b89d8" id="svg_14" opacity="0.97"/>
  </g>
  <g id="svg_15">
   <path d="m576.5,76.5c-4,2.11 -8.33,3.44 -13,4c4,-2.11 8.33,-3.44 13,-4z" fill="#3672ae" id="svg_16" opacity="0.72"/>
  </g>
  <g id="svg_17">
   <path d="m560.5,150.5c-4.6,1.7 -8.93,4.2 -13,7.5c-5.01,0.41 -10.01,0.91 -15,1.5c-2.42,-0.09 -4.76,-0.59 -7,-1.5c-1.26,-0.42 -1.92,-1.25 -2,-2.5c2.89,1.28 5.89,2.28 9,3c9.28,-2.87 18.62,-5.54 28,-8z" fill="#3c8ee3" id="svg_18" opacity="0.99"/>
  </g>
  <g id="svg_19">
   <path d="m577.5,118.5c-6.63,3.13 -13.63,5.47 -21,7c4.67,-1.98 9.33,-4.15 14,-6.5c2.31,-0.5 4.64,-0.66 7,-0.5z" fill="#3f8edb" id="svg_20" opacity="0.95"/>
  </g>
  <g id="svg_21" transform="matrix(1 0 0 1 0 0)">
   <path d="m-175.5,84.5c1.37,-0.16 2.71,0.01 4,0.5c18.15,9.24 36.48,18.24 55,27c1.71,1.13 2.21,2.63 1.5,4.5c-11.18,5.16 -22.68,9.66 -34.5,13.5c-2.58,1.25 -5.24,1.58 -8,1c-9.52,-10.22 -18.69,-20.72 -27.5,-31.5c-0.67,-2 -0.67,-4 0,-6c3.67,-2.5 6.83,-5.5 9.5,-9z" fill="#060b1b" id="svg_22" opacity="0.12"/>
  </g>
  <g id="svg_23" transform="matrix(0.836403 -0.000323484 -0.166599 0.38765 -50.9319 124.992)">
   <path d="m193.27,-0.52c-8.55,2.74 -17.21,5.07 -26,7c-8.63,-9.47 -17.13,-19.14 -25.5,-29c-0.67,-1 -0.67,-2 0,-3c3.02,-3.18 6.18,-6.18 9.5,-9c19.21,9.77 38.54,19.27 58,28.5c-5.26,2.14 -10.59,3.97 -16,5.5z" fill="#3597f9" id="svg_24" opacity="0.99"/>
  </g>
  <g id="svg_25" transform="matrix(1 0 0 1 0 0)">
   <path d="m-47.5,99.5c-11.75,5.25 -24.09,9.59 -37,13c11.97,-5.14 24.31,-9.48 37,-13z" fill="#3d87d0" id="svg_26" opacity="0.83"/>
  </g>
  <g id="svg_27" transform="matrix(1 0 0 1 0 0)">
   <path d="m-103.5,118.5c-2.12,2.16 -4.78,3.16 -8,3c2.44,-1.37 5.1,-2.37 8,-3z" fill="#3474b2" id="svg_28" opacity="0.74"/>
  </g>
  <g id="svg_29" transform="matrix(1 0 0 1 0 0)">
   <path d="m-131.5,120.5c-7.75,3.36 -15.75,6.36 -24,9c-1.02,-0.35 -1.69,-1.02 -2,-2c8.79,-1.93 17.45,-4.26 26,-7z" fill="#428bd4" id="svg_30" opacity="0.77"/>
  </g>
  <g id="svg_31" transform="matrix(1 0 0 1 0 0)">
   <path d="m-111.5,121.5c-4.59,3.35 -9.93,5.35 -16,6c5.03,-2.57 10.36,-4.57 16,-6z" fill="#3b83c9" id="svg_32" opacity="0.8"/>
  </g>
  <g id="svg_33" transform="matrix(1 0 0 1 0 0)">
   <path d="m-21.5,132.5c-1.82,1.95 -4.15,2.95 -7,3c2.01,-1.56 4.34,-2.56 7,-3z" fill="#041a3d" id="svg_34" opacity="0.16"/>
  </g>
  <g id="svg_35" transform="matrix(1 0 0 1 0 0)">
   <path d="m-130.5,128.5c-1.1,0.9 -1.1,1.73 0,2.5c-6.32,-0.06 -11.98,1.77 -17,5.5c1.41,0.74 2.74,1.58 4,2.5c4.08,0.23 8.08,0.9 12,2c0.56,0.38 0.89,0.88 1,1.5c-7.8,-0.52 -15.13,-2.52 -22,-6c6.97,-3.66 14.3,-6.32 22,-8z" fill="#3c87d6" id="svg_36" opacity="0.9"/>
  </g>
  <g id="svg_37" transform="matrix(1 0 0 1 0 0)">
   <path d="m-106.5,145.5c14.69,0.91 29.35,0.91 44,0c-1.34,1.29 -3.01,2.13 -5,2.5c-13.24,0.75 -26.24,-0.09 -39,-2.5z" fill="#377bc4" id="svg_38" opacity="0.85"/>
  </g>
 </g>
</svg>